<?xml version="1.0" standalone="no"?>
<!DOCTYPE svg PUBLIC "-//W3C//DTD SVG 20010904//EN"
 "http://www.w3.org/TR/2001/REC-SVG-20010904/DTD/svg10.dtd">
<svg version="1.0" xmlns="http://www.w3.org/2000/svg"
 width="1000.000000pt" height="667.000000pt" viewBox="0 0 1000.000000 667.000000"
 preserveAspectRatio="xMidYMid meet">

<g transform="translate(0.000000,667.000000) scale(0.100000,-0.100000)"
fill="#000000" stroke="none">
<path d="M0 3335 l0 -3335 3720 0 c3536 0 3720 1 3721 18 0 9 0 59 -1 110 -1
91 9 122 38 122 5 0 17 11 26 25 15 23 15 25 -1 25 -10 0 -56 -7 -103 -16
l-85 -16 -280 56 c-420 83 -492 95 -695 112 -35 3 -66 6 -67 7 -1 1 16 12 38
24 21 12 37 18 34 13 -3 -4 3 -11 12 -14 9 -4 20 -1 24 6 7 10 11 10 21 0 14
-14 60 -16 74 -2 5 5 32 12 59 15 28 3 70 8 95 11 25 4 64 8 88 9 44 3 152 42
152 55 0 12 31 23 75 25 42 2 115 41 115 62 0 6 11 24 24 40 18 22 22 33 14
46 -12 23 25 56 64 57 37 0 75 19 81 39 2 9 21 22 43 30 58 20 84 39 84 62 0
13 10 23 30 30 16 6 32 19 35 29 3 11 28 41 55 69 l48 49 17 -44 c26 -68 39
-56 32 30 -5 75 1 156 12 156 3 -1 22 -33 41 -72 19 -39 46 -87 59 -107 13
-19 29 -53 37 -73 13 -38 64 -131 69 -126 10 12 54 98 50 98 -3 0 5 16 16 36
14 27 17 39 9 44 -17 10 24 20 90 21 55 0 160 15 128 18 -21 1 -23 12 -6 29 9
9 8 12 -8 12 -11 0 -25 5 -32 12 -9 9 -12 7 -12 -10 0 -20 -5 -22 -59 -22 -56
0 -58 1 -58 25 0 14 3 25 7 25 4 0 13 19 20 43 21 66 32 78 54 61 13 -9 17
-21 14 -39 -6 -29 26 -55 44 -37 14 14 39 112 32 123 -3 5 4 9 15 9 12 0 21
-7 21 -15 0 -9 6 -12 15 -9 8 4 12 10 9 15 -3 5 14 7 38 4 24 -3 120 -9 213
-15 332 -21 1226 -89 1360 -105 22 -2 84 -7 138 -11 l97 -6 0 44 c0 41 -2 44
-27 46 -16 1 -170 11 -343 22 -173 11 -515 33 -760 50 -245 16 -517 35 -605
40 -88 6 -176 13 -195 16 -33 6 -34 7 -12 17 12 5 22 14 22 19 0 5 -5 6 -11 3
-6 -4 -5 2 2 13 7 12 18 18 24 15 5 -4 7 -3 3 2 -11 12 11 47 25 38 8 -5 8 -2
-1 9 -11 14 -9 19 14 37 16 13 24 27 20 36 -3 8 -1 15 3 15 5 0 19 25 32 55
12 30 26 55 31 55 4 0 8 6 8 13 0 7 16 37 35 66 32 48 56 120 59 176 1 18 7
20 66 17 97 -3 538 -32 1370 -88 52 -3 101 -11 108 -16 6 -6 12 -7 12 -3 0 4
7 2 15 -5 10 -9 15 -9 15 -1 0 6 7 11 16 11 11 0 14 -6 10 -17 -6 -17 -5 -17
7 -1 9 11 21 15 35 11 20 -5 22 -2 22 36 l0 41 -40 0 c-23 0 -52 8 -66 17 -16
10 -28 13 -32 6 -10 -14 -63 -15 -252 -3 -91 5 -415 24 -720 41 -353 21 -558
36 -562 43 -4 6 -13 -4 -22 -25 -12 -29 -63 -81 -85 -85 -28 -7 -51 -18 -51
-26 0 -6 -7 -8 -15 -5 -8 4 -17 2 -21 -4 -3 -6 -12 -8 -19 -5 -7 2 -16 2 -20
-2 -9 -9 -31 -12 -166 -16 -206 -7 -408 48 -528 145 -30 24 -42 43 -51 80 -7
27 -17 52 -24 57 -6 4 -17 18 -24 32 -15 31 -33 60 -49 77 -10 11 -17 6 -37
-25 -15 -24 -42 -48 -68 -61 -25 -11 -56 -34 -71 -49 l-27 -29 25 -55 c29 -63
46 -141 40 -186 -7 -56 -47 -131 -90 -171 -50 -46 -183 -111 -290 -141 -22 -7
-63 -22 -91 -35 -28 -13 -66 -25 -84 -27 -29 -3 -35 1 -40 22 -5 20 -8 16 -14
-25 -41 -278 -396 -422 -724 -293 -40 16 -69 39 -122 96 -71 77 -92 89 -44 26
31 -40 27 -41 -35 -13 -25 12 -66 31 -91 42 -87 38 -95 42 -100 48 -3 4 -22
14 -44 23 -38 16 -38 16 -31 -7 4 -12 8 -41 9 -64 1 -24 8 -49 16 -57 14 -14
105 -30 235 -42 75 -7 125 -19 150 -38 24 -17 31 -14 -120 -51 -113 -27 -227
-80 -239 -111 -4 -9 -5 -19 -3 -21 2 -2 71 -5 153 -7 82 -2 157 -7 167 -11 13
-5 17 -2 17 13 0 28 20 39 27 14 5 -22 22 -27 148 -43 56 -7 102 -7 153 0 40
6 84 11 97 11 30 0 37 -28 13 -52 -10 -10 -18 -31 -18 -46 0 -16 -3 -32 -7
-35 -9 -10 -13 -58 -4 -53 5 3 17 -1 27 -9 10 -9 14 -14 8 -13 -10 3 -61 -31
-89 -59 -7 -7 -15 -10 -17 -8 -2 2 -10 -22 -17 -55 -7 -33 -17 -57 -22 -54
-10 6 -10 5 -14 -43 -2 -23 2 -33 12 -33 8 0 12 -3 10 -7 -3 -5 0 -12 7 -18
17 -16 46 -17 46 -3 0 8 3 9 8 3 9 -13 35 -18 27 -5 -10 17 11 11 38 -10 14
-11 30 -20 35 -20 5 0 15 -7 22 -15 12 -14 5 -20 -21 -17 -22 3 -397 1 -573
-3 -139 -4 -232 -11 -280 -21 -205 -46 -294 -42 -425 24 -136 67 -164 65 -581
-38 -91 -22 -196 -49 -235 -60 -42 -11 -104 -19 -155 -19 -47 -1 -130 -8 -185
-17 -167 -26 -215 -33 -345 -49 -69 -8 -163 -22 -210 -30 -47 -9 -143 -22
-215 -30 -71 -9 -182 -22 -246 -30 -138 -18 -225 -6 -340 47 -93 43 -158 111
-347 363 -191 255 -338 443 -465 593 l-79 93 37 42 c66 75 297 486 380 677 47
106 53 116 85 126 31 10 42 24 97 130 70 133 167 345 177 385 l6 26 -103 -22
c-106 -23 -151 -40 -143 -54 3 -4 -6 -6 -21 -3 -17 3 -24 1 -19 -6 9 -16 -98
-45 -449 -122 -77 -17 -168 -37 -202 -45 -34 -8 -68 -15 -75 -15 -23 0 26 27
77 43 48 14 49 15 15 15 -19 1 -69 -6 -110 -14 -41 -8 -109 -19 -150 -25 -41
-5 -76 -14 -78 -19 -2 -5 -19 -6 -39 -3 -25 4 -39 2 -47 -8 -6 -8 -20 -16 -31
-16 -41 -3 -107 -14 -131 -24 -41 -15 -104 9 -104 40 0 11 -62 11 -70 0 -3 -4
-16 -9 -30 -10 -14 -2 -29 -9 -35 -15 -12 -13 -95 -38 -102 -30 -3 2 14 10 37
16 30 8 40 15 36 26 -3 9 1 14 14 14 10 0 21 4 24 9 3 5 28 16 56 25 40 13 72
15 157 10 168 -10 468 24 665 75 99 26 255 91 316 132 26 17 79 40 117 50 146
38 361 98 388 108 16 6 43 11 61 11 19 0 39 6 45 14 15 18 48 22 401 46 348
24 341 23 422 59 35 16 92 35 128 41 36 7 70 16 75 21 6 4 39 12 75 19 104 18
227 50 277 72 87 38 175 58 263 58 94 0 182 25 258 73 42 27 59 56 25 42 -95
-37 -434 11 -554 78 -23 13 -56 43 -73 66 -26 36 -29 45 -19 70 14 38 -2 67
-81 144 -40 40 -83 98 -120 162 -31 55 -77 128 -102 163 -47 68 -54 103 -30
150 74 142 437 235 855 219 163 -6 279 -24 377 -57 31 -11 61 -20 66 -20 13 0
10 488 -7 1020 -8 267 -20 654 -26 860 -6 206 -14 419 -16 473 l-4 97 -1423 0
-1423 0 3 -22 c9 -56 55 -437 69 -573 40 -388 72 -670 95 -830 20 -144 38
-304 65 -600 9 -93 20 -208 26 -255 5 -47 15 -130 21 -185 8 -82 14 -103 32
-117 32 -27 53 -22 61 12 9 39 32 39 102 -1 30 -17 55 -30 56 -28 1 2 7 13 13
24 10 18 7 21 -34 35 -40 13 -47 20 -53 48 -4 18 -17 44 -30 58 -27 29 -23 34
54 59 41 13 55 14 100 2 28 -7 75 -10 102 -7 81 8 288 -13 319 -33 24 -16 26
-21 21 -74 -3 -31 -8 -60 -12 -64 -11 -11 -257 -13 -332 -4 l-65 8 24 -33 c22
-31 25 -32 74 -26 193 25 245 28 386 22 236 -9 397 -50 483 -122 61 -51 67
-77 41 -189 -24 -105 -61 -210 -111 -308 -24 -48 -48 -111 -53 -140 -15 -79
-65 -171 -113 -210 -53 -43 -83 -58 -177 -90 -121 -40 -179 -51 -285 -50 -132
0 -232 32 -314 101 -31 26 -59 52 -63 57 -10 13 -10 37 0 31 4 -2 19 4 32 15
l25 19 -127 123 c-69 67 -136 138 -149 157 -13 19 -48 67 -79 105 -75 92 -92
126 -88 178 4 63 32 61 83 -3 43 -54 119 -99 179 -104 18 -2 38 -6 43 -9 38
-24 349 -34 483 -16 41 5 90 11 108 14 100 11 171 28 176 41 3 8 1 14 -4 14
-6 0 -10 9 -10 21 0 29 34 21 38 -10 4 -29 24 -26 140 19 88 34 171 97 158
119 -14 22 -170 88 -225 96 -43 6 -51 4 -51 -9 0 -21 -13 -20 -33 2 -13 14
-35 18 -118 20 -84 2 -100 0 -90 -11 13 -16 5 -27 -21 -27 -10 0 -18 7 -18 15
0 8 -6 15 -14 15 -8 0 -16 5 -18 11 -3 9 -9 9 -24 1 -10 -5 -46 -15 -79 -21
-32 -6 -76 -22 -97 -36 -32 -21 -42 -24 -59 -14 -26 13 -45 -1 -35 -27 5 -14
16 -16 69 -11 34 3 80 12 103 20 38 14 43 14 73 -5 25 -16 31 -27 29 -47 -4
-31 -31 -35 -36 -6 -6 33 -19 39 -48 21 -21 -14 -25 -23 -21 -46 4 -16 0 -35
-8 -46 -13 -19 -14 -19 -28 0 -12 17 -16 17 -44 3 -52 -27 -165 -22 -292 14
-30 8 -45 9 -50 1 -4 -7 -24 -6 -66 3 -45 11 -66 22 -85 45 -26 32 -48 38 -67
19 -9 -9 -18 -4 -37 17 -26 30 -33 54 -17 54 5 0 12 -9 16 -19 6 -20 35 -37
35 -21 0 13 -37 50 -50 50 -5 0 -10 30 -12 68 l-3 67 -50 1 c-204 4 -592 28
-652 40 -49 10 -80 50 -99 132 -10 42 -16 102 -15 133 1 31 -7 105 -18 165
-18 98 -40 235 -87 549 -9 55 -26 168 -39 250 -13 83 -34 213 -45 290 -12 77
-39 239 -61 360 -47 264 -64 364 -93 555 l-22 145 -297 3 -297 2 0 -3335z
m2168 1635 c7 0 20 -16 29 -35 15 -32 15 -36 0 -53 -22 -24 -21 -28 3 -59 12
-15 20 -41 20 -62 0 -20 7 -63 15 -96 20 -84 19 -118 -5 -133 -27 -17 -25 -36
5 -52 31 -17 34 -61 5 -90 -26 -26 -33 -25 -53 9 -21 37 -21 55 0 92 16 27 16
29 0 42 -33 24 -80 256 -59 293 8 14 5 24 -9 44 -43 54 -70 103 -67 118 2 9
14 22 28 29 23 12 27 10 50 -17 14 -17 31 -30 38 -30z m337 -203 c4 -13 5 -48
3 -78 -3 -53 -4 -54 -32 -52 -38 3 -46 17 -46 80 0 63 22 98 52 82 10 -5 20
-20 23 -32z m-29 -254 c-4 -4 -11 -1 -16 7 -16 25 -11 35 7 17 9 -9 13 -20 9
-24z m200 -625 c4 -6 -3 -19 -16 -30 -17 -14 -26 -16 -36 -7 -19 16 -17 37 4
42 31 8 41 7 48 -5z m224 -34 c0 -14 -5 -24 -11 -22 -6 2 -10 7 -10 11 1 4 1
14 1 22 0 8 5 15 10 15 6 0 10 -12 10 -26z m130 -38 c0 -3 -4 -8 -10 -11 -5
-3 -10 -1 -10 4 0 6 5 11 10 11 6 0 10 -2 10 -4z m-1629 -16 c235 -24 385 -95
403 -192 13 -72 -63 -357 -131 -492 -14 -28 -27 -71 -28 -96 -8 -141 -163
-289 -375 -358 -141 -46 -374 -65 -515 -42 -132 21 -242 105 -306 231 -17 35
-57 91 -89 125 -118 127 -249 370 -236 439 18 95 147 193 350 264 282 100 654
148 927 121z m1366 -75 c3 -9 3 -19 -1 -22 -7 -7 -36 16 -36 28 0 15 30 10 37
-6z m-321 -20 c-3 -9 1 -18 9 -21 36 -14 11 -25 -46 -21 -69 6 -72 7 -63 32 6
14 15 16 51 12 23 -2 43 -1 43 4 0 5 3 9 6 9 3 0 3 -7 0 -15z m-2348 -962 c6
-15 12 -36 12 -47 0 -12 7 -34 15 -50 21 -40 18 -47 -4 -11 -22 34 -54 135
-43 135 4 0 13 -12 20 -27z m749 -179 c-3 -3 -12 -4 -19 -1 -8 3 -5 6 6 6 11
1 17 -2 13 -5z m91 -11 c-16 -2 -40 -2 -55 0 -16 2 -3 4 27 4 30 0 43 -2 28
-4z m130 0 c-10 -2 -28 -2 -40 0 -13 2 -5 4 17 4 22 1 32 -1 23 -4z m-812
-191 c-6 -5 -39 67 -49 108 -4 14 7 -4 24 -39 16 -35 28 -66 25 -69z m970 26
c-24 -14 -114 -38 -143 -38 -38 0 -26 17 20 28 63 17 79 20 112 21 26 0 28 -1
11 -11z m-266 -38 c0 -5 -10 -10 -22 -9 -22 0 -22 1 -3 9 11 5 21 9 23 9 1 1
2 -3 2 -9z m70 -9 c0 -10 -69 -25 -78 -17 -3 3 4 6 16 6 11 0 24 5 27 10 8 12
35 13 35 1z m-125 -11 c-7 -12 -42 -13 -48 -2 -3 4 8 8 24 9 17 1 27 -2 24 -7z
m-368 -16 c-3 -3 -12 -4 -19 -1 -8 3 -5 6 6 6 11 1 17 -2 13 -5z m261 -4 c-10
-6 -25 -7 -40 -1 -20 9 -18 10 17 10 31 0 36 -2 23 -9z m141 6 c-2 -2 -17 -6
-34 -10 -22 -5 -26 -4 -15 4 14 9 59 15 49 6z m-469 -16 c-14 -4 -34 -8 -45
-8 -16 0 -15 2 5 8 14 4 34 8 45 8 16 0 15 -2 -5 -8z m73 -7 c-7 -2 -19 -2
-25 0 -7 3 -2 5 12 5 14 0 19 -2 13 -5z m157 -3 c11 -8 7 -9 -15 -4 -37 8 -45
14 -19 14 10 0 26 -5 34 -10z m97 -6 c-3 -3 -12 -4 -19 -1 -8 3 -5 6 6 6 11 1
17 -2 13 -5z m-187 -38 c0 -3 -4 -8 -10 -11 -5 -3 -10 -1 -10 4 0 6 5 11 10
11 6 0 10 -2 10 -4z m-152 -23 c-10 -2 -28 -2 -40 0 -13 2 -5 4 17 4 22 1 32
-1 23 -4z m-104 -78 c5 -29 4 -36 -3 -25 -6 8 -11 28 -11 44 0 39 6 31 14 -19z
m6892 -127 c39 -44 58 -105 37 -117 -11 -6 -12 -10 -4 -15 6 -4 11 -12 11 -17
0 -6 -4 -8 -9 -5 -5 3 -12 -10 -15 -29 -8 -38 -12 -41 -38 -21 -18 13 -25 32
-9 22 5 -4 8 20 8 54 -1 33 -5 60 -9 60 -4 0 -5 7 -2 15 3 8 2 20 -2 27 -12
19 -16 58 -6 58 5 0 22 -15 38 -32z m21 -284 c-3 -3 -12 -4 -19 -1 -8 3 -5 6
6 6 11 1 17 -2 13 -5z m260 -96 c-3 -8 -6 -5 -6 6 -1 11 2 17 5 13 3 -3 4 -12
1 -19z m-317 -42 c0 -7 -9 -16 -21 -19 -20 -5 -20 -5 -3 14 20 23 24 23 24 5z
m349 -24 c8 -25 6 -30 -7 -28 -10 2 -17 8 -16 14 1 7 2 22 3 34 1 27 9 20 20
-20z m-379 -47 c-14 -17 -30 -20 -30 -4 0 5 5 7 10 4 6 -3 10 -1 10 4 0 6 5
11 11 11 8 0 8 -5 -1 -15z m355 5 c3 -5 1 -10 -4 -10 -6 0 -11 5 -11 10 0 6 2
10 4 10 3 0 8 -4 11 -10z m67 -86 c4 -61 -2 -144 -11 -144 -5 0 -10 33 -10 74
0 41 -1 78 -2 82 -1 5 -1 18 0 29 1 17 3 18 11 4 5 -9 10 -29 12 -45z m-485
20 c-3 -3 -12 -4 -19 -1 -8 3 -5 6 6 6 11 1 17 -2 13 -5z m-27 -80 c0 -4 -7
-12 -15 -18 -8 -6 -17 -21 -20 -34 -2 -12 -7 -27 -10 -32 -12 -19 -128 -91
-139 -86 -6 2 -3 5 7 5 9 1 17 9 17 19 0 9 32 47 72 84 69 63 88 77 88 62z
m-200 -205 c0 -5 -4 -9 -10 -9 -5 0 -10 7 -10 16 0 8 5 12 10 9 6 -3 10 -10
10 -16z m-40 -24 c0 -14 -48 -45 -70 -45 -18 0 9 40 33 50 31 13 37 12 37 -5z
m-176 -131 c3 -7 -2 -11 -12 -9 -9 2 -23 4 -29 4 -7 1 -13 5 -13 11 0 14 49 8
54 -6z m-147 -77 c-39 -31 -55 -38 -63 -26 -7 12 15 31 28 23 7 -5 9 2 7 23 0
4 8 10 18 14 28 10 35 -14 10 -34z m-226 -18 c9 -17 8 -20 -3 -14 -10 6 -10 5
-1 -5 9 -10 15 -10 26 -1 11 9 17 8 27 -3 14 -17 6 -36 -16 -36 -8 0 -17 -7
-21 -15 -5 -15 -53 -45 -71 -45 -20 0 1 63 30 92 9 9 15 24 12 33 -9 23 4 18
17 -6z m-86 -110 c10 -16 -1 -22 -26 -14 -17 6 -19 9 -8 16 19 12 26 11 34 -2z
m29 -360 c-2 -4 2 -9 8 -12 7 -2 1 -4 -14 -3 -27 1 -34 7 -23 18 8 8 35 5 29
-3z"/>
<path d="M795 3641 c-7 -22 -11 -23 -62 -17 -36 4 -52 3 -48 -4 3 -5 23 -10
44 -10 30 0 42 -6 55 -25 9 -14 12 -25 7 -25 -5 0 -17 -3 -26 -7 -14 -5 -16
-2 -10 15 6 20 3 22 -29 22 -32 0 -36 -3 -36 -25 0 -27 -26 -35 -48 -13 -16
16 -16 -5 -1 -34 19 -35 -8 -50 -89 -50 -38 0 -79 5 -90 11 -49 26 -95 -27
-104 -120 -5 -46 -5 -47 31 -57 20 -6 79 -16 131 -22 160 -21 550 8 571 42 5
8 9 8 9 2 0 -13 138 11 154 27 6 5 19 9 31 9 61 0 322 108 359 149 22 24 16
35 -30 57 -33 16 -38 16 -62 2 -23 -13 -32 -13 -62 -2 -57 21 -63 18 -57 -21
5 -28 2 -37 -13 -45 -10 -5 -25 -8 -32 -6 -7 2 -25 7 -40 10 -17 4 -28 13 -28
23 0 15 -2 14 -19 -1 -38 -35 -76 -12 -57 34 4 9 -2 20 -15 28 -20 13 -21 12
-14 -17 8 -36 0 -38 -35 -10 l-24 21 22 40 22 41 -82 -5 c-62 -4 -84 -9 -94
-22 -8 -11 -28 -19 -52 -20 -22 -1 -47 -10 -57 -19 -11 -12 -24 -15 -38 -11
-19 6 -20 5 -9 -9 11 -13 10 -17 -6 -26 -32 -17 -44 6 -21 43 24 39 24 48 2
44 -10 -2 -23 3 -29 11 -10 12 -13 11 -19 -8z m301 -27 c17 -14 17 -15 1 -10
-10 3 -23 6 -28 6 -5 0 -9 5 -9 10 0 14 13 12 36 -6z m-53 -79 c42 -51 26 -68
-73 -78 -29 -2 -33 15 -12 58 32 65 45 69 85 20z m37 21 c0 -7 10 -20 23 -29
12 -8 19 -18 15 -22 -7 -8 -68 44 -68 57 0 5 7 8 15 8 8 0 15 -6 15 -14z
m-189 -36 c23 0 29 -4 29 -21 0 -18 -4 -20 -22 -14 -42 14 -100 7 -115 -14 -8
-12 -20 -18 -28 -15 -22 9 -18 24 5 24 11 0 20 4 20 9 0 13 52 40 68 35 8 -2
27 -4 43 -4z m0 -68 c7 -19 4 -25 -17 -34 -21 -10 -28 -9 -38 2 -6 9 -22 14
-36 12 -21 -2 -19 1 15 22 48 29 65 29 76 -2z m211 -44 c-6 -6 -16 -8 -22 -6
-9 3 -7 9 6 22 13 13 19 15 22 6 2 -6 0 -16 -6 -22z m263 12 c3 -5 -3 -10 -14
-10 -12 0 -21 5 -21 10 0 6 6 10 14 10 8 0 18 -4 21 -10z m-731 -25 c-6 -16
-34 -21 -34 -7 0 13 11 22 26 22 8 0 11 -6 8 -15z m441 -15 c3 -5 2 -10 -4
-10 -5 0 -13 5 -16 10 -3 6 -2 10 4 10 5 0 13 -4 16 -10z m-510 -20 c3 -5 1
-10 -4 -10 -6 0 -11 5 -11 10 0 6 2 10 4 10 3 0 8 -4 11 -10z m380 -41 c11
-17 -1 -21 -15 -4 -8 9 -8 15 -2 15 6 0 14 -5 17 -11z"/>
<path d="M1311 3604 c0 -11 4 -28 9 -39 8 -19 9 -19 9 -1 1 14 4 16 15 7 10
-9 19 -7 37 8 29 23 23 31 -30 38 -36 5 -41 3 -40 -13z"/>
<path d="M5686 6628 c-10 -82 -15 -294 -21 -802 -13 -1272 -18 -1542 -31
-1791 -5 -102 -8 -112 -31 -133 -19 -17 -33 -22 -52 -18 -36 8 -346 27 -516
32 -131 3 -313 17 -344 25 -9 3 -24 -26 -47 -94 -18 -54 -49 -127 -69 -162
-19 -35 -35 -67 -35 -72 0 -5 15 -18 34 -29 146 -83 408 -248 437 -276 32 -29
36 -57 14 -103 l-13 -30 -1 33 c-1 29 -4 32 -33 32 -51 0 -181 -25 -313 -60
-66 -18 -147 -38 -180 -46 -33 -7 -130 -31 -215 -53 -85 -22 -200 -49 -255
-61 -118 -24 -192 -43 -200 -51 -3 -4 15 -12 40 -19 52 -15 192 -9 397 15 69
7 134 12 145 9 11 -3 79 4 149 15 71 11 271 32 445 46 281 22 338 24 520 15
112 -5 238 -14 279 -20 89 -14 431 -14 615 0 72 5 202 12 290 15 88 4 183 13
210 20 56 16 110 63 120 108 16 63 41 30 69 -93 10 -41 40 -156 67 -255 27
-99 58 -211 69 -250 10 -38 26 -106 35 -150 9 -43 18 -81 20 -84 3 -2 5 20 5
50 0 55 25 233 39 279 4 14 5 34 2 44 -8 20 14 300 25 325 4 9 8 63 10 121 2
58 10 190 19 294 9 105 14 202 11 217 -3 14 -1 30 4 35 4 5 10 43 12 84 l3 75
-45 1 c-25 0 -72 5 -105 9 -33 5 -150 9 -260 10 -221 2 -391 13 -417 26 -9 5
-24 16 -33 25 -14 15 -19 15 -52 -2 -33 -15 -58 -16 -223 -11 -188 7 -461 31
-514 45 -35 10 -40 19 -55 96 -12 65 -4 90 31 102 28 9 682 7 711 -2 43 -13
57 -34 51 -74 -4 -25 -1 -48 11 -70 35 -68 42 -26 65 405 23 422 28 580 29
880 1 266 9 479 36 1010 2 55 7 157 11 228 l6 127 -219 0 -220 0 -1 -230 c-1
-165 -4 -236 -14 -252 -9 -16 -11 -65 -9 -171 3 -185 -18 -264 -51 -192 -8 19
-8 56 0 148 7 67 14 228 17 357 3 129 8 259 11 288 l5 52 -245 0 -245 0 -5
-42z m188 -1724 c80 -20 126 -42 126 -59 0 -8 8 -12 20 -10 24 5 37 -29 20
-50 -10 -12 -10 -15 1 -15 8 0 9 -3 4 -9 -16 -15 -127 -21 -168 -9 -37 11 -56
41 -49 76 2 7 -7 26 -18 42 -12 17 -18 34 -15 40 8 13 6 13 79 -6z m-136
-1617 c2 -11 -3 -17 -17 -17 -23 0 -35 15 -26 31 10 15 39 6 43 -14z m-703
-157 c0 -7 -6 -15 -12 -17 -8 -3 -13 4 -13 17 0 13 5 20 13 18 6 -3 12 -11 12
-18z m2280 -429 c3 -5 1 -12 -5 -16 -5 -3 -10 1 -10 9 0 18 6 21 15 7z"/>
<path d="M7901 6548 c-15 -152 -26 -276 -46 -533 -8 -110 -18 -211 -21 -224
-2 -13 -9 -78 -15 -145 -5 -66 -14 -159 -19 -206 -5 -47 -13 -161 -19 -253 -6
-92 -12 -171 -15 -175 -3 -5 -12 -61 -20 -126 -9 -64 -19 -123 -22 -129 -5 -8
-4 -9 4 -2 35 34 104 359 162 765 61 431 61 428 48 450 -9 15 -8 27 7 59 21
48 30 51 39 15 8 -31 40 -29 44 3 2 16 -3 23 -27 28 -25 5 -30 12 -36 45 -13
75 23 101 145 106 67 3 72 2 46 -9 -27 -12 -28 -14 -13 -29 13 -12 14 -18 4
-21 -6 -3 2 -6 20 -6 32 -1 52 -28 38 -51 -4 -6 12 -10 42 -9 26 1 41 3 32 6
-16 4 -32 57 -21 68 3 3 18 5 34 5 25 0 33 9 29 33 -2 10 51 8 69 -3 13 -8 13
-10 -2 -10 -9 0 -20 -5 -24 -11 -5 -9 1 -10 22 -4 58 16 84 14 99 -8 8 -12 15
-29 15 -38 0 -32 -33 -76 -64 -85 -20 -6 -32 -16 -34 -30 -3 -18 1 -21 24 -16
15 3 29 13 31 23 8 29 20 23 33 -16 10 -30 9 -40 -8 -68 -18 -28 -22 -75 -42
-402 -13 -222 -20 -443 -18 -553 2 -103 -1 -183 -6 -185 -5 -2 -5 -11 1 -22 7
-11 7 -30 2 -49 -8 -29 -7 -30 6 -12 14 18 15 17 13 -22 -1 -23 -4 -42 -7 -42
-11 0 -6 -91 5 -98 15 -10 25 -42 14 -42 -10 0 -2 -61 9 -70 4 -3 8 -20 10
-39 1 -19 7 -45 12 -58 5 -14 9 -37 9 -53 0 -16 5 -32 10 -35 6 -4 8 -10 6
-14 -9 -13 15 -85 32 -97 8 -6 12 -16 8 -22 -4 -7 -3 -12 2 -12 6 0 12 -15 15
-32 10 -57 18 -92 28 -113 6 -13 5 -46 -1 -90 -5 -38 -14 -119 -20 -180 -36
-377 -90 -738 -121 -810 -5 -11 -13 -33 -19 -48 -5 -16 -14 -26 -19 -22 -6 3
-8 -4 -6 -16 2 -12 2 -19 -2 -16 -6 7 -39 -23 -36 -32 1 -3 -7 -15 -18 -27
-10 -11 -16 -24 -12 -27 3 -4 2 -7 -4 -7 -5 0 -15 -19 -22 -42 -7 -23 -18 -53
-24 -67 -6 -14 -11 -29 -12 -33 -2 -5 -4 -9 -5 -10 -1 -2 -3 -14 -5 -28 -1
-14 -4 -29 -5 -35 -1 -5 -1 -12 0 -15 1 -3 3 -18 5 -35 4 -43 14 -90 25 -119
9 -24 20 -31 43 -27 5 1 6 -3 2 -9 -3 -6 -10 -8 -15 -5 -4 3 -7 -6 -6 -20 0
-14 4 -25 7 -25 4 0 10 -7 13 -16 5 -12 2 -15 -11 -10 -12 4 -9 -1 7 -15 14
-12 24 -26 23 -30 -2 -5 1 -9 5 -9 6 0 44 106 48 135 3 23 17 45 30 45 8 0 15
3 15 8 5 25 8 50 11 70 3 26 5 26 51 7 20 -8 52 -13 72 -10 19 2 35 0 35 -5 0
-6 -8 -11 -17 -11 -10 -1 -4 -4 12 -8 21 -5 34 -2 42 9 11 13 12 12 13 -7 0
-16 4 -21 15 -17 22 9 19 45 -5 51 -11 3 -17 9 -15 14 3 4 22 1 43 -8 95 -40
96 -40 125 -28 l29 12 -31 26 c-17 14 -31 28 -31 31 0 11 49 6 56 -5 3 -6 17
-8 29 -5 14 3 27 1 31 -6 4 -7 3 -8 -4 -4 -7 4 -12 2 -12 -3 0 -13 2 -13 36
-1 18 7 30 7 39 0 9 -7 21 -7 40 0 22 9 37 6 82 -15 32 -14 52 -29 48 -35 -5
-8 -11 -8 -21 0 -16 14 -74 -7 -74 -27 0 -16 12 -17 27 -2 15 15 34 3 26 -16
-3 -8 0 -15 6 -15 6 0 11 6 11 13 0 10 12 13 38 12 47 -3 72 -13 72 -31 0 -8
6 -13 13 -11 6 1 11 -3 10 -10 -2 -7 4 -10 12 -6 10 3 13 12 10 24 -4 11 -2
19 4 19 6 0 10 -3 10 -7 -4 -27 3 -43 21 -43 11 0 20 -4 20 -10 0 -5 10 -10
23 -10 12 0 28 -9 35 -20 8 -14 23 -20 46 -20 26 0 36 -5 41 -20 4 -11 10 -18
15 -15 5 3 11 1 15 -4 3 -5 14 -8 24 -6 11 2 27 -5 37 -16 9 -10 13 -19 8 -19
-5 0 1 -7 12 -14 26 -19 65 -17 82 4 12 13 13 12 9 -7 -3 -13 -1 -23 4 -23 5
0 9 5 9 11 0 7 9 9 23 6 20 -5 20 -5 5 7 -24 18 -22 24 7 22 14 0 25 -4 25 -7
0 -3 7 -6 15 -6 22 0 14 16 -19 35 -16 9 -42 29 -58 45 -17 15 -36 27 -43 27
-7 0 -15 3 -17 8 -6 15 -134 94 -233 144 -22 11 -52 27 -66 34 -14 7 -44 16
-67 20 -54 9 -45 24 11 17 69 -9 380 -174 632 -334 99 -64 95 -62 95 -47 0 32
-357 235 -908 514 -111 56 -214 112 -228 123 -14 11 -46 27 -72 36 -95 34
-103 38 -112 55 -8 15 -4 16 41 9 28 -4 57 -13 65 -20 8 -7 17 -9 20 -6 8 7
-11 27 -48 51 -37 24 -35 32 8 41 43 8 55 0 29 -19 -18 -13 -18 -14 1 -23 10
-5 48 -8 84 -7 71 4 155 -20 143 -40 -3 -6 -3 -8 1 -4 4 3 33 -3 64 -14 71
-24 326 -147 330 -159 2 -5 9 -9 15 -9 16 0 216 -100 223 -112 4 -5 2 -14 -3
-19 -5 -5 -23 4 -43 21 -27 23 -36 26 -40 15 -6 -17 -25 -6 -25 15 0 9 -11 16
-25 18 l-25 2 23 -13 c12 -7 20 -16 17 -19 -4 -3 26 -26 67 -49 40 -24 87 -52
103 -61 17 -10 55 -30 85 -44 60 -28 165 -89 193 -113 16 -13 17 58 16 1470
-1 816 -5 1464 -9 1439 -4 -25 -17 -115 -29 -200 -12 -85 -27 -182 -33 -215
-16 -95 -27 -173 -38 -275 -11 -101 -32 -224 -56 -329 -10 -42 -13 -87 -9
-130 4 -42 1 -94 -9 -141 -12 -64 -20 -79 -48 -103 -18 -15 -44 -31 -58 -34
-25 -6 -301 11 -350 22 -14 3 -174 7 -356 8 -310 2 -333 3 -353 21 -28 25 -36
75 -22 144 6 31 15 113 21 182 6 69 17 195 25 280 7 85 19 207 24 270 6 63 13
129 16 145 3 17 9 86 15 155 5 69 14 157 19 195 6 39 15 111 21 160 5 50 17
149 25 220 8 72 22 207 30 300 8 94 20 206 25 250 6 44 20 170 31 280 12 110
24 221 26 248 l6 47 -500 0 -500 0 -12 -122z m299 -346 c0 -4 -10 -9 -22 -9
-18 -2 -20 0 -8 7 18 12 30 13 30 2z m345 -3312 c3 -6 -5 -10 -19 -10 -14 0
-28 5 -31 10 -3 6 5 10 19 10 14 0 28 -4 31 -10z m315 -14 c0 -3 -4 -8 -10
-11 -5 -3 -10 -1 -10 4 0 6 5 11 10 11 6 0 10 -2 10 -4z m-322 -55 c37 -16 94
-40 127 -54 333 -137 501 -212 489 -219 -11 -6 -716 31 -723 37 -23 24 126 24
404 -1 l70 -6 -19 21 c-11 12 -15 21 -11 21 20 0 -41 51 -74 61 -20 7 -101 43
-180 80 -79 38 -145 69 -146 69 -2 0 -8 -21 -14 -46 -7 -26 -14 -44 -17 -42
-5 6 16 108 23 108 2 0 35 -13 71 -29z m316 -202 c-5 -9 -17 -5 -42 14 -10 8
-10 12 0 18 14 9 51 -19 42 -32z m235 -145 c2 -2 -10 -4 -27 -4 -17 0 -34 4
-37 10 -5 9 53 3 64 -6z m661 -29 c0 -9 -6 -12 -16 -8 -13 5 -13 7 -2 14 17
11 18 11 18 -6z m-950 -35 c0 -5 -4 -10 -10 -10 -5 0 -10 5 -10 10 0 6 5 10
10 10 6 0 10 -4 10 -10z m400 -31 c0 -5 -4 -9 -10 -9 -5 0 -10 7 -10 16 0 8 5
12 10 9 6 -3 10 -10 10 -16z m50 12 c0 -5 -7 -12 -16 -15 -14 -5 -15 -4 -4 9
14 17 20 19 20 6z m-130 -11 c0 -5 -2 -10 -4 -10 -3 0 -8 5 -11 10 -3 6 -1 10
4 10 6 0 11 -4 11 -10z m753 3 c-7 -2 -13 -11 -13 -19 0 -9 -4 -13 -10 -9 -14
9 0 35 19 34 10 0 11 -2 4 -6z m-518 -83 c3 -5 1 -10 -4 -10 -6 0 -11 5 -11
10 0 6 2 10 4 10 3 0 8 -4 11 -10z m280 -80 c-3 -5 -11 -10 -16 -10 -6 0 -7 5
-4 10 3 6 11 10 16 10 6 0 7 -4 4 -10z"/>
<path d="M8060 6201 c0 -5 9 -7 20 -4 11 3 20 7 20 9 0 2 -9 4 -20 4 -11 0
-20 -4 -20 -9z"/>
<path d="M8358 6143 c7 -3 16 -2 19 1 4 3 -2 6 -13 5 -11 0 -14 -3 -6 -6z"/>
<path d="M8398 6143 c7 -3 16 -2 19 1 4 3 -2 6 -13 5 -11 0 -14 -3 -6 -6z"/>
<path d="M8189 6007 c-7 -15 -7 -31 0 -50 9 -22 14 -25 33 -18 29 11 34 33 12
65 -20 32 -31 33 -45 3z"/>
<path d="M8350 6010 c-12 -8 -12 -10 3 -16 21 -8 35 2 21 16 -5 5 -15 6 -24 0z"/>
<path d="M8170 5890 c0 -5 5 -10 12 -10 6 0 3 -10 -8 -21 -18 -20 -18 -22 -2
-32 14 -9 14 -13 3 -21 -8 -6 -15 -31 -17 -56 -2 -25 -8 -51 -13 -59 -4 -8
-10 -55 -11 -105 -2 -50 -8 -122 -14 -161 -6 -38 -10 -80 -10 -93 0 -28 -27
-82 -40 -82 -6 0 -9 -3 -9 -7 3 -19 -2 -27 -10 -15 -7 12 -12 12 -30 1 -11 -8
-21 -19 -21 -26 0 -10 32 -12 130 -10 120 2 160 11 109 24 -14 4 -17 8 -8 13
9 6 10 20 2 61 -8 40 -8 59 3 84 13 32 39 323 29 333 -2 3 -11 -1 -19 -8 -29
-23 -42 -5 -14 21 14 13 28 38 29 54 3 25 0 31 -19 33 -14 2 -22 9 -19 17 3 7
1 17 -4 22 -7 7 -5 16 5 26 23 23 20 27 -19 27 -19 0 -35 -4 -35 -10z m-63
-656 c-3 -3 -12 -4 -19 -1 -8 3 -5 6 6 6 11 1 17 -2 13 -5z"/>
<path d="M8419 5796 c-2 -2 -2 -39 -1 -82 4 -92 19 -81 21 17 1 60 -5 80 -20
65z"/>
<path d="M7915 5333 c-3 -32 -9 -69 -11 -83 -5 -21 -4 -22 6 -8 11 18 27 148
18 148 -3 0 -9 -26 -13 -57z"/>
<path d="M7860 5210 c0 -5 5 -10 11 -10 5 0 7 5 4 10 -3 6 -8 10 -11 10 -2 0
-4 -4 -4 -10z"/>
<path d="M3910 4150 c0 -21 -24 -27 -36 -8 -5 8 -11 6 -20 -6 -7 -10 -18 -16
-26 -15 -33 4 -38 -1 -34 -43 5 -49 -6 -68 -40 -68 -23 0 -54 -33 -54 -57 0
-18 20 -16 60 4 30 14 36 14 59 2 16 -9 27 -25 29 -42 3 -23 8 -27 37 -27 27
0 33 3 29 15 -4 8 -1 22 5 29 9 11 9 19 0 34 -18 28 -5 52 28 52 22 0 31 8 43
33 9 19 24 33 36 35 12 2 24 12 27 23 4 16 -1 20 -34 25 -22 4 -42 11 -45 15
-3 5 -9 7 -14 4 -5 -3 -19 -1 -30 5 -17 9 -20 8 -20 -10z m43 -57 c11 -10 -13
-32 -29 -26 -20 8 -17 33 4 33 10 0 22 -3 25 -7z"/>
<path d="M4070 4151 c0 -5 9 -11 21 -14 16 -4 18 -3 8 9 -13 16 -29 19 -29 5z"/>
<path d="M3589 4042 c-15 -40 -4 -55 36 -49 30 5 35 3 35 -14 0 -16 3 -18 19
-10 10 6 22 22 25 36 4 14 11 25 16 25 24 0 7 18 -22 24 -88 17 -99 16 -109
-12z"/>
<path d="M7788 3571 c-104 -34 -249 -161 -305 -266 -108 -206 -102 -418 16
-503 138 -100 572 -157 715 -93 172 75 166 386 -12 648 -106 157 -189 215
-312 220 -41 1 -87 -1 -102 -6z m197 -45 c87 -41 187 -161 260 -311 89 -183
91 -376 3 -450 -43 -36 -98 -47 -243 -47 -147 0 -290 25 -409 70 -185 71 -223
220 -115 452 58 125 160 228 284 286 68 32 152 32 220 0z"/>
<path d="M7764 3450 c10 -39 9 -44 -9 -54 -33 -19 -95 -83 -95 -99 0 -10 17
-19 49 -27 40 -9 52 -18 67 -46 13 -24 26 -34 42 -34 13 0 31 -4 40 -9 13 -7
27 -1 56 26 36 33 38 38 28 65 -10 28 -10 28 26 27 28 -2 31 -3 11 -6 -22 -3
-25 -8 -21 -29 3 -19 -4 -32 -31 -57 -20 -18 -39 -44 -42 -58 -6 -22 -2 -28
28 -42 28 -14 41 -15 67 -5 25 8 38 8 51 -1 23 -14 59 -14 93 -1 20 7 26 16
26 40 0 17 5 40 11 52 26 48 -14 87 -94 89 -28 1 -34 3 -17 6 32 6 40 19 40
64 0 35 -32 79 -58 79 -6 0 -15 6 -19 13 -5 8 -49 18 -108 26 -55 6 -112 15
-126 17 l-27 6 12 -42z m46 -21 c0 -10 -4 -19 -10 -19 -5 0 -10 12 -10 26 0
14 4 23 10 19 6 -3 10 -15 10 -26z m212 -56 c17 -15 25 -53 11 -53 -4 0 -17
10 -30 22 -40 37 -22 68 19 31z m-182 -3 c12 -8 10 -10 -10 -10 -14 0 -32 5
-40 10 -12 8 -10 10 10 10 14 0 32 -5 40 -10z m-103 -60 c-30 -37 -54 -28 -27
11 13 17 26 26 35 23 12 -5 11 -11 -8 -34z m250 -62 c-3 -8 -6 -5 -6 6 -1 11
2 17 5 13 3 -3 4 -12 1 -19z m142 -34 c3 -16 1 -17 -13 -5 -19 16 -21 34 -3
29 6 -3 14 -13 16 -24z m-116 -1 c-7 -2 -19 -2 -25 0 -7 3 -2 5 12 5 14 0 19
-2 13 -5z m-73 -38 c-7 -8 -17 -15 -23 -15 -5 0 -2 9 8 20 21 23 35 19 15 -5z"/>
<path d="M7627 3260 c4 -14 -3 -27 -21 -41 -47 -37 -29 -89 30 -89 17 0 37 -7
44 -15 7 -8 28 -15 46 -15 29 0 34 3 34 24 0 14 5 28 10 31 18 11 11 51 -12
72 -17 16 -111 53 -134 53 -1 0 0 -9 3 -20z m-15 -72 c-7 -7 -12 -8 -12 -2 0
14 12 26 19 19 2 -3 -1 -11 -7 -17z m138 6 c0 -8 -4 -12 -10 -9 -5 3 -10 10
-10 16 0 5 5 9 10 9 6 0 10 -7 10 -16z"/>
<path d="M7785 3143 c-3 -15 -10 -42 -15 -59 -6 -17 -10 -33 -10 -36 0 -15 97
-39 127 -32 l21 6 -20 44 c-10 25 -18 57 -16 72 3 25 0 27 -39 30 -39 3 -43 1
-48 -25z"/>
<path d="M7537 3138 c-17 -13 -77 -176 -77 -209 0 -35 24 -71 59 -88 95 -48
255 -86 424 -101 150 -13 233 -4 265 28 24 23 25 26 18 134 -3 61 -11 119 -16
129 -6 10 -26 21 -44 25 -20 3 -33 11 -30 17 3 9 -23 13 -86 14 -79 2 -90 0
-90 -15 0 -11 -3 -13 -8 -6 -7 11 -45 34 -56 34 -16 0 -2 -33 28 -64 30 -32
39 -36 82 -35 27 0 71 4 99 8 27 5 55 7 61 4 6 -2 16 -50 23 -106 15 -136 19
-133 -147 -130 -180 2 -357 34 -489 88 -47 18 -59 28 -61 48 -3 27 46 178 61
188 16 11 46 -2 52 -22 7 -21 54 -49 83 -49 21 0 72 36 72 51 0 5 -15 9 -34 9
-19 0 -38 5 -41 10 -3 6 -20 10 -37 10 -16 0 -41 9 -55 20 -30 23 -34 24 -56
8z"/>
<path d="M8163 3102 c-3 -7 -1 -18 5 -24 8 -8 9 -4 6 13 l-5 24 15 -25 c8 -14
16 -23 16 -20 8 33 4 46 -13 46 -11 0 -22 -6 -24 -14z"/>
<path d="M7560 2986 c0 -50 -5 -56 -26 -28 -11 14 -13 15 -14 2 0 -21 20 -40
42 -40 15 0 18 8 18 49 0 28 -4 53 -10 56 -6 4 -10 -12 -10 -39z"/>
<path d="M7616 2978 c-20 -31 -31 -78 -18 -78 6 0 13 6 16 13 3 8 11 4 26 -12
28 -33 34 -22 20 43 -12 61 -22 68 -44 34z m21 -40 c-3 -8 -6 -5 -6 6 -1 11 2
17 5 13 3 -3 4 -12 1 -19z"/>
<path d="M7695 2955 c-3 -14 -7 -36 -10 -49 -6 -30 14 -46 22 -17 7 26 23 18
23 -12 0 -34 17 -7 25 40 6 35 4 43 -14 52 -30 17 -40 13 -46 -14z m45 -16 c0
-5 -7 -9 -15 -9 -15 0 -20 12 -9 23 8 8 24 -1 24 -14z"/>
<path d="M7785 2945 c-3 -14 -7 -36 -10 -50 -8 -38 5 -52 21 -24 l14 24 6 -22
c8 -30 24 -29 24 0 0 13 5 28 10 33 15 15 3 39 -26 53 -33 15 -33 15 -39 -14z
m45 -26 c0 -5 -7 -9 -15 -9 -15 0 -20 12 -9 23 8 8 24 -1 24 -14z"/>
<path d="M7876 2928 c-9 -35 -7 -88 3 -88 5 0 14 23 20 50 14 63 14 60 -3 60
-7 0 -16 -10 -20 -22z"/>
<path d="M7930 2940 c-12 -8 -12 -10 1 -15 13 -5 15 -16 11 -52 -4 -36 -2 -45
9 -41 8 2 16 22 19 44 3 25 11 40 21 42 13 2 16 -6 15 -40 -1 -39 1 -43 25
-46 19 -2 28 3 37 23 26 57 4 103 -37 78 -12 -8 -22 -7 -36 3 -22 16 -44 18
-65 4z m130 -39 c0 -41 -22 -67 -33 -38 -6 16 10 57 23 57 5 0 10 -9 10 -19z"/>
<path d="M8107 2933 c-12 -11 -8 -40 8 -53 21 -17 19 -30 -5 -30 -11 0 -20 -4
-20 -10 0 -16 46 -12 60 5 11 13 9 20 -9 38 -26 29 -27 37 -1 37 11 0 20 5 20
10 0 11 -43 14 -53 3z"/>
<path d="M4496 3465 c-23 -35 -20 -47 21 -75 20 -14 44 -42 53 -63 l17 -38 22
27 c32 40 28 84 -11 121 -29 27 -69 53 -81 53 -3 0 -12 -11 -21 -25z"/>
<path d="M7035 2811 c-4 -14 0 -32 13 -53 l20 -32 -3 37 c-2 20 -8 44 -13 53
-9 16 -10 15 -17 -5z"/>
<path d="M3960 2775 c0 -2 10 -10 23 -16 20 -11 21 -11 8 4 -13 16 -31 23 -31
12z"/>
<path d="M4052 2758 c-7 -7 -12 -21 -12 -31 0 -17 -2 -18 -17 -6 -15 11 -15
10 1 -8 17 -20 17 -23 2 -29 -9 -3 -13 -10 -10 -15 3 -5 10 -7 15 -4 5 4 10
-4 10 -17 1 -17 3 -18 6 -5 2 9 9 17 14 17 5 0 9 7 9 15 0 8 5 15 11 15 6 0 9
-6 6 -14 -3 -8 3 -23 14 -35 l20 -22 -34 -34 c-19 -19 -32 -35 -29 -35 3 0 0
-6 -6 -12 -10 -10 -14 -10 -21 0 -4 7 -36 15 -76 18 -38 2 -73 10 -77 17 -6 9
-15 4 -33 -15 l-24 -28 -15 30 c-11 23 -11 30 -2 30 7 0 19 11 26 25 16 31 41
29 55 -3 8 -19 15 -22 40 -17 16 3 35 11 42 18 18 17 5 87 -15 87 -13 0 -13 3
-4 12 7 7 12 20 12 30 0 20 -34 25 -60 8 -12 -8 -11 -10 8 -10 25 0 26 -3 12
-30 -7 -13 -16 -17 -28 -13 -15 6 -15 5 -3 -10 18 -22 9 -31 -22 -23 -14 3
-27 16 -30 28 -5 17 -9 20 -18 11 -9 -9 -15 -8 -26 3 -8 8 -27 14 -43 14 -23
0 -28 4 -23 16 4 12 2 15 -8 12 -8 -3 -13 -14 -11 -24 2 -14 1 -16 -6 -5 -12
17 -72 5 -72 -15 0 -8 -6 -14 -13 -14 -21 0 -65 -42 -49 -47 6 -3 9 -9 6 -15
-3 -5 4 -12 15 -15 17 -4 19 -8 10 -19 -13 -16 -39 -19 -39 -4 0 6 -5 10 -10
10 -6 0 -10 -6 -9 -12 3 -27 -2 -38 -26 -54 -28 -18 -53 -10 -34 12 11 13 6
18 -14 15 -5 -1 -11 8 -14 19 -4 16 -14 20 -50 20 -40 0 -44 2 -38 20 7 24 -7
26 -25 5 -7 -8 -18 -15 -26 -15 -8 0 -15 -18 -20 -45 -3 -25 -10 -48 -15 -51
-5 -3 -9 -14 -9 -25 0 -17 -5 -20 -27 -15 -16 3 -35 2 -43 -3 -12 -9 -12 -15
5 -48 10 -21 19 -46 18 -55 0 -9 6 -19 14 -22 8 -3 11 -2 8 3 -10 17 18 24 30
8 7 -10 26 -17 48 -17 20 0 42 -7 51 -15 10 -10 24 -13 40 -9 13 3 33 1 43 -5
14 -8 15 -11 3 -11 -8 0 -2 -8 13 -16 27 -14 33 -42 8 -36 -6 1 -11 -5 -11
-14 0 -9 -13 -20 -28 -26 -24 -9 -28 -17 -28 -49 0 -29 4 -39 20 -45 18 -5 16
-8 -14 -13 l-35 -7 35 -7 c19 -4 73 -9 119 -11 49 -2 86 -8 91 -15 4 -7 16
-13 28 -14 11 0 19 -4 16 -8 -2 -4 0 -10 6 -14 5 -3 10 -2 10 3 0 20 40 20 54
0 13 -18 15 -18 24 -2 11 19 36 10 28 -11 -3 -9 2 -11 16 -7 16 4 19 2 13 -8
-5 -9 -4 -11 3 -6 7 4 12 14 12 22 0 21 16 17 28 -8 8 -18 11 -19 11 -5 1 20
13 21 95 7 44 -7 63 -6 74 2 8 7 24 17 35 23 35 17 31 41 -12 86 -23 22 -43
51 -46 65 -3 13 -7 35 -10 48 -6 28 37 91 87 130 61 46 242 116 301 116 10 0
24 6 31 12 17 16 1 65 -28 89 -12 10 -17 21 -12 26 4 4 15 -2 23 -14 15 -22
16 -22 44 -6 32 19 36 31 14 39 -8 4 -15 12 -15 20 0 8 -9 19 -20 26 -11 7
-20 21 -20 31 0 10 -7 28 -15 40 -12 18 -22 22 -50 19 -19 -2 -35 -9 -35 -16
0 -17 -65 -86 -82 -86 -8 0 -24 14 -36 30 -29 38 -51 40 -44 3 4 -22 2 -25
-12 -20 -10 4 -20 7 -22 7 -3 0 -2 5 1 10 3 6 2 10 -3 10 -5 0 -17 16 -28 35
-20 38 -24 41 -42 23z m-266 -73 c4 -8 12 -15 20 -15 14 0 19 -21 8 -33 -10
-9 -34 4 -34 19 0 8 -4 14 -9 14 -5 0 -11 7 -15 15 -3 9 0 15 10 15 8 0 17 -7
20 -15z m467 -40 c51 -4 100 -29 117 -60 15 -28 11 -36 -16 -35 -11 0 -36 0
-56 0 -33 -1 -39 3 -52 32 -11 26 -15 28 -15 12 -1 -11 -9 -28 -20 -38 -16
-15 -19 -15 -31 -1 -11 13 -10 14 6 9 18 -7 18 -6 2 12 -12 14 -14 24 -6 37 5
10 7 25 4 34 -5 11 -2 13 11 8 10 -4 35 -9 56 -10z m-298 -15 c-3 -5 -16 -10
-28 -9 -21 0 -21 1 -2 9 28 12 37 12 30 0z m-175 -52 c0 -5 -12 -19 -26 -31
l-26 -20 27 -15 c21 -10 24 -17 15 -25 -8 -9 -14 -8 -21 6 -7 12 -17 15 -37
11 -15 -4 -31 -11 -37 -15 -15 -15 -34 -10 -45 10 -15 28 -3 49 33 57 18 4 47
15 66 25 34 18 51 17 51 -3z m585 -48 c-3 -5 -12 -10 -18 -10 -7 0 -6 4 3 10
19 12 23 12 15 0z m-45 -10 c13 -8 13 -10 -2 -10 -9 0 -20 5 -23 10 -8 13 5
13 25 0z m-252 -13 c8 -9 7 -13 -6 -13 -9 0 -30 -3 -47 -7 l-30 -8 30 20 c37
24 40 24 53 8z m-583 -23 c0 -13 -6 -18 -20 -16 -27 5 -29 8 -14 26 18 19 34
15 34 -10z m251 -49 c-6 -17 -60 -13 -64 5 -1 8 10 22 25 31 26 14 28 14 36
-5 4 -11 6 -25 3 -31z m238 30 c-4 -8 -8 -15 -10 -15 -2 0 -4 7 -4 15 0 8 4
15 10 15 5 0 7 -7 4 -15z m-143 -22 c-9 -35 -35 -52 -58 -37 -18 12 -19 44 -2
54 4 3 22 7 38 8 27 2 29 0 22 -25z m-301 -17 c0 -7 -6 -19 -14 -25 -12 -10
-17 -8 -25 7 -6 11 -7 22 -4 26 12 11 43 6 43 -8z m449 -30 c-11 -5 -19 -13
-19 -19 0 -5 8 -3 17 4 15 12 16 12 10 -3 -4 -11 0 -21 10 -26 12 -7 14 -18 9
-46 l-7 -37 -29 23 c-34 28 -44 48 -30 62 5 5 10 19 10 30 0 11 8 28 17 38 17
19 18 19 24 1 4 -12 1 -21 -12 -27z m-194 -66 c-3 -5 -11 -10 -16 -10 -6 0 -7
5 -4 10 3 6 11 10 16 10 6 0 7 -4 4 -10z m140 -140 c3 -5 1 -10 -4 -10 -6 0
-11 5 -11 10 0 6 2 10 4 10 3 0 8 -4 11 -10z"/>
<path d="M7476 2748 c-3 -13 -6 -40 -6 -61 0 -36 3 -39 45 -58 143 -63 351
-101 530 -97 l120 3 7 60 c3 33 5 61 4 62 0 1 -37 -2 -81 -5 -44 -4 -97 -5
-118 -1 -29 4 -40 2 -47 -10 -8 -14 -9 -14 -10 2 0 12 -8 17 -30 17 -16 0 -30
-5 -30 -10 0 -6 -10 -4 -23 5 -13 8 -59 22 -102 30 -44 9 -102 25 -129 36 -27
10 -55 19 -63 19 -8 0 -21 7 -29 15 -21 21 -31 19 -38 -7z m44 -41 c0 -5 7 -4
15 3 23 19 32 1 24 -45 -5 -34 -8 -37 -14 -18 -5 16 -13 20 -31 17 -23 -4 -24
-2 -24 43 1 44 2 47 15 29 8 -11 15 -24 15 -29z m109 -29 c4 -13 11 -35 15
-50 6 -26 5 -27 -16 -19 -13 5 -31 12 -40 15 -16 5 -16 8 3 41 12 19 23 35 25
35 3 0 8 -10 13 -22z m74 -20 c14 -20 16 -21 16 -5 1 10 7 17 13 15 8 -3 12
-19 9 -44 -4 -50 -9 -54 -32 -25 -15 19 -19 20 -19 6 0 -9 -5 -15 -11 -13 -6
2 -10 7 -10 11 1 4 1 23 1 42 0 40 11 45 33 13z m100 -7 c50 -19 40 -81 -13
-81 -35 0 -38 5 -33 53 6 40 9 42 46 28z m106 -42 c16 -47 14 -63 -6 -54 -10
4 -28 7 -40 6 -28 -1 -28 5 -3 47 25 40 35 40 49 1z m243 -13 c-5 -44 -19 -54
-37 -30 -13 18 -14 18 -15 2 0 -10 -6 -18 -13 -18 -9 0 -11 12 -9 40 4 39 23
53 38 29 5 -8 10 -6 16 5 14 26 25 11 20 -28z m-135 18 c3 -8 1 -20 -5 -26 -6
-6 -8 -17 -5 -24 3 -8 -1 -14 -11 -14 -9 0 -16 6 -17 13 0 10 -2 10 -6 0 -2
-7 -12 -13 -20 -13 -11 0 -14 6 -9 23 3 12 6 30 6 40 0 23 58 24 67 1z m49 0
c-3 -9 -6 -27 -6 -40 0 -15 -6 -24 -15 -24 -17 0 -18 4 -9 49 4 18 13 31 21
31 10 0 13 -6 9 -16z"/>
<path d="M7787 2616 c-3 -8 -2 -18 3 -21 13 -8 24 15 12 27 -6 6 -11 4 -15 -6z"/>
<path d="M9443 2583 c9 -14 47 -24 47 -12 0 5 -4 9 -9 9 -5 0 -17 3 -27 7 -11
4 -15 3 -11 -4z"/>
<path d="M2931 2468 c-28 -52 -36 -97 -34 -178 3 -137 7 -149 71 -213 48 -48
64 -58 86 -55 28 3 28 3 -17 34 -91 65 -130 220 -93 378 9 38 15 70 13 72 -2
2 -13 -15 -26 -38z"/>
<path d="M5214 2461 c-37 -22 -57 -47 -50 -60 7 -10 92 -41 115 -41 11 0 12 3
4 11 -6 6 -9 28 -6 49 7 51 -19 68 -63 41z m-4 -51 c0 -5 -8 -10 -17 -10 -15
0 -16 2 -3 10 19 12 20 12 20 0z"/>
<path d="M8967 2403 c4 -9 53 -33 69 -33 2 0 4 10 4 22 0 17 -3 19 -12 10 -7
-7 -19 -12 -27 -12 -13 1 -12 3 3 15 18 14 17 14 -11 12 -19 -1 -29 -7 -26
-14z"/>
<path d="M8870 2388 c0 -13 7 -17 29 -14 15 2 33 6 39 10 8 4 10 2 6 -7 -6
-17 12 -32 21 -18 3 6 13 8 23 4 9 -3 3 4 -14 15 -16 10 -47 21 -67 24 -30 3
-37 1 -37 -14z"/>
<path d="M4337 2374 c-10 -13 -15 -29 -12 -34 4 -7 -2 -9 -17 -5 -23 6 -133
-45 -133 -62 0 -4 -3 -7 -6 -6 -4 1 -9 -7 -12 -18 -4 -15 -2 -19 9 -15 9 3 12
1 9 -4 -3 -6 -11 -10 -17 -10 -6 0 -22 -12 -36 -27 -17 -19 -22 -31 -15 -41
16 -27 108 -71 186 -92 82 -20 239 -37 222 -23 -5 4 -10 24 -10 43 0 32 2 35
28 33 15 -1 28 2 28 8 1 5 2 13 3 18 0 5 4 13 9 17 4 4 7 18 7 30 0 25 19 74
29 74 12 0 36 -20 25 -20 -7 0 -14 -8 -18 -17 -3 -10 -9 -24 -12 -30 -3 -8 2
-13 14 -13 26 0 43 -22 32 -40 -14 -22 -12 -28 8 -33 16 -4 16 -4 -2 -12 -19
-9 -39 11 -32 32 6 16 -30 47 -39 34 -3 -6 4 -15 16 -19 18 -7 19 -10 6 -15
-12 -4 -16 -18 -15 -52 1 -44 1 -45 34 -45 36 0 84 18 84 32 0 4 5 8 11 8 6 0
8 -7 5 -16 -3 -8 -2 -12 4 -9 18 11 11 25 -22 45 -32 19 -32 20 -8 20 14 0 34
2 45 4 11 2 14 1 8 -1 -24 -8 -13 -25 11 -19 18 4 25 1 29 -14 6 -22 25 -25
80 -9 22 6 35 14 31 21 -4 6 1 8 14 4 24 -8 34 4 21 24 -7 13 -10 13 -18 1 -7
-11 -10 -11 -17 0 -12 19 -44 20 -44 3 0 -11 -5 -12 -17 -6 -10 5 -35 12 -56
15 -20 3 -44 12 -52 20 -13 13 -13 17 1 28 8 7 13 18 10 26 -7 17 18 17 33 -1
10 -11 8 -15 -6 -19 -17 -4 -17 -5 1 -6 12 -1 16 -6 12 -16 -9 -25 42 -31 81
-10 23 13 33 25 33 42 0 13 -4 22 -9 19 -5 -4 -12 0 -14 6 -4 10 -6 10 -6 1
-1 -18 -21 -16 -21 2 0 8 -4 15 -10 15 -6 0 -9 3 -8 8 4 14 -27 52 -43 52 -8
0 -25 -12 -38 -26 -12 -14 -27 -24 -34 -21 -14 4 -28 76 -15 83 14 9 -1 24
-25 25 -21 0 -21 1 3 11 15 6 20 12 12 15 -12 5 -102 -33 -112 -47 -11 -14
-40 -6 -40 11 0 10 -4 21 -10 24 -5 3 -10 -1 -10 -9 0 -19 -5 -20 -33 -4 -29
16 -87 21 -87 8 0 -5 -9 -10 -21 -10 -11 0 -18 4 -15 8 2 4 2 13 -2 19 -4 7
-14 2 -25 -13z m37 -73 c9 -14 46 -20 43 -7 -1 6 4 11 11 10 45 -4 44 -3 29
-19 -9 -8 -17 -19 -19 -25 -2 -6 -20 -4 -48 5 -25 7 -39 14 -31 14 11 1 11 4
1 16 -8 9 -9 15 -2 15 6 0 13 -4 16 -9z m169 -18 c7 -6 -11 -33 -22 -33 -4 0
-7 9 -7 20 0 19 16 27 29 13z m-308 -23 c-3 -5 -12 -10 -18 -10 -7 0 -6 4 3
10 19 12 23 12 15 0z m108 -14 c3 -7 -10 -10 -39 -7 -24 1 -44 6 -44 11 0 12
78 8 83 -4z m461 -12 c26 -26 18 -36 -14 -17 -16 9 -30 21 -30 25 0 14 28 9
44 -8z m-266 -1 c18 -4 23 -11 19 -29 -2 -13 1 -25 7 -28 7 -3 6 -5 -2 -5 -8
-1 -16 8 -19 19 -3 11 -6 20 -7 20 0 0 -19 7 -41 15 -39 14 -39 14 -10 14 17
1 41 -2 53 -6z m190 -12 c3 -8 -1 -12 -9 -9 -7 2 -15 10 -17 17 -3 8 1 12 9 9
7 -2 15 -10 17 -17z m-506 -13 c-7 -7 -12 -8 -12 -2 0 14 12 26 19 19 2 -3 -1
-11 -7 -17z m279 -29 c6 -13 3 -18 -12 -22 -15 -4 -18 -2 -10 7 8 9 2 17 -25
29 -19 10 -32 22 -29 27 8 13 63 -18 76 -41z m-156 21 c-3 -5 -17 -10 -31 -10
-13 0 -24 5 -24 10 0 6 14 10 31 10 17 0 28 -4 24 -10z m91 -12 c4 -6 3 -8 -3
-5 -13 8 -25 -35 -17 -57 3 -8 13 -17 22 -19 10 -3 5 -5 -10 -6 -22 -1 -29 5
-34 25 -4 16 -2 29 5 33 7 5 11 12 10 17 -4 25 14 34 27 12z m99 -48 c3 -6 -1
-7 -9 -4 -18 7 -21 14 -7 14 6 0 13 -4 16 -10z m-48 -46 c-3 -3 -12 -4 -19 -1
-8 3 -5 6 6 6 11 1 17 -2 13 -5z"/>
<path d="M4493 2393 c9 -2 23 -2 30 0 6 3 -1 5 -18 5 -16 0 -22 -2 -12 -5z"/>
<path d="M8830 2384 c0 -7 27 -34 34 -34 4 0 1 9 -6 20 -12 19 -28 27 -28 14z"/>
<path d="M4710 2376 c0 -2 9 -6 20 -9 11 -3 20 -1 20 4 0 5 -9 9 -20 9 -11 0
-20 -2 -20 -4z"/>
<path d="M4810 2376 c0 -2 7 -6 15 -10 8 -3 15 -1 15 4 0 6 -7 10 -15 10 -8 0
-15 -2 -15 -4z"/>
<path d="M5846 2353 c-8 -8 -13 -10 -45 -12 -11 0 -26 -7 -33 -14 -7 -8 -19
-12 -26 -9 -7 2 -12 -5 -12 -18 0 -12 5 -18 10 -15 6 3 13 -1 16 -10 4 -9 16
-15 28 -14 24 3 76 -20 76 -32 0 -9 41 -10 73 -2 21 5 23 29 2 37 -8 3 -15 12
-15 20 0 8 -9 18 -20 21 -13 4 -20 15 -20 31 0 23 -18 32 -34 17z m-46 -37 c0
-2 -7 -7 -16 -10 -8 -3 -12 -2 -9 4 6 10 25 14 25 6z m25 -26 c3 -5 2 -10 -4
-10 -5 0 -13 5 -16 10 -3 6 -2 10 4 10 5 0 13 -4 16 -10z m35 -5 c0 -8 -2 -15
-4 -15 -2 0 -6 7 -10 15 -3 8 -1 15 4 15 6 0 10 -7 10 -15z"/>
<path d="M6035 2338 c-20 -15 -29 -18 -38 -9 -17 17 -31 13 -17 -4 11 -13 10
-14 -4 -9 -9 3 -16 14 -16 23 0 13 -2 13 -9 2 -7 -11 -9 -11 -14 0 -4 9 -6 10
-6 2 -1 -7 13 -29 31 -48 31 -36 31 -37 43 -14 12 22 12 22 23 -7 l10 -29 1
38 c1 30 5 37 20 37 14 0 21 -8 23 -27 2 -17 10 -29 20 -31 16 -3 16 0 2 42
-18 54 -34 62 -69 34z"/>
<path d="M5444 2340 c-22 -3 -62 -19 -88 -35 -27 -17 -58 -36 -71 -42 -39 -22
-48 -39 -33 -62 7 -12 16 -21 20 -21 5 0 8 -7 8 -15 0 -9 9 -15 23 -15 17 0
19 -2 7 -10 -9 -5 -19 -5 -26 0 -6 6 -14 7 -17 3 -4 -3 -7 -1 -7 6 0 15 -42
10 -64 -8 -9 -7 -16 -19 -16 -26 0 -7 -7 -18 -15 -25 -9 -7 -14 -19 -11 -27 4
-11 1 -11 -14 -3 -16 9 -18 8 -14 -5 4 -8 12 -15 20 -15 8 0 14 -6 14 -12 0
-10 3 -9 9 1 6 10 11 1 16 -28 4 -23 4 -45 1 -48 -3 -3 1 -18 10 -34 9 -18 10
-29 4 -29 -6 0 -15 10 -20 23 -11 25 -34 57 -43 57 -7 0 7 -50 22 -78 9 -17 8
-22 -8 -27 -11 -3 -22 -13 -25 -22 -5 -12 -1 -14 21 -9 52 13 170 19 176 9 3
-5 1 -28 -5 -52 -9 -36 -8 -44 6 -54 24 -17 16 -41 -14 -48 -23 -5 -24 -6 -5
-13 57 -21 61 -25 23 -24 -21 1 -40 -1 -43 -4 -3 -3 43 -6 102 -6 102 0 188
-11 260 -31 21 -6 33 -6 35 1 3 8 11 7 26 -1 12 -6 22 -8 22 -4 0 5 12 8 28 7
15 -1 39 -3 54 -3 14 -1 40 -12 56 -26 17 -14 42 -25 58 -25 l29 1 -32 29
c-25 23 -28 30 -16 34 20 8 53 -2 53 -16 0 -6 3 -8 6 -5 4 4 1 14 -6 22 -12
15 -8 16 41 10 30 -3 65 -9 79 -12 23 -6 23 -7 5 -15 -15 -6 -13 -7 8 -3 16 3
35 1 42 -5 9 -8 15 -3 24 19 9 21 19 28 36 27 13 0 21 -4 19 -7 -10 -17 58
-29 167 -29 100 0 121 -3 126 -16 4 -12 14 -14 42 -9 20 4 41 11 48 17 7 5 52
20 100 33 165 43 208 57 226 76 22 24 22 26 -8 33 -22 6 -23 9 -13 31 6 14 15
25 21 25 5 0 7 10 4 23 -7 26 0 40 29 55 19 10 23 7 38 -27 15 -31 23 -38 47
-39 28 -1 30 2 25 28 -2 16 -8 35 -12 42 -5 7 -7 21 -6 30 3 15 -2 15 -33 7
-20 -6 -42 -8 -48 -6 -7 2 -24 0 -39 -4 -25 -7 -29 -5 -34 19 -12 54 -16 62
-30 62 -7 0 -19 -9 -26 -20 -7 -11 -20 -20 -29 -20 -9 0 -19 -9 -22 -20 -6
-25 -38 -26 -73 -4 -20 13 -30 15 -49 6 -16 -7 -26 -8 -30 -1 -9 13 -27 0 -22
-15 4 -9 -3 -11 -19 -8 -13 2 -24 11 -24 18 0 16 -26 19 -35 4 -4 -6 -11 -8
-16 -4 -5 3 -7 10 -3 15 3 5 0 8 -7 7 -6 -2 -14 3 -16 10 -3 6 0 12 6 12 6 0
11 7 11 16 0 9 -5 13 -12 9 -7 -4 -6 -1 3 7 19 16 32 48 19 48 -6 0 -10 -5
-10 -11 0 -5 -8 -9 -17 -8 -40 4 -44 0 -27 -26 8 -13 12 -29 8 -36 -5 -8 -10
-7 -16 5 -7 13 -13 14 -23 6 -9 -8 -14 -6 -19 7 -4 10 -7 20 -7 23 -1 16 -26
31 -45 27 -17 -3 -21 1 -21 20 0 12 3 23 8 23 5 0 9 -7 9 -17 0 -9 3 -13 7
-10 3 4 14 0 23 -8 17 -16 50 -11 50 7 0 6 -6 8 -13 5 -8 -3 -14 3 -14 15 -3
28 -10 33 -28 18 -9 -7 -16 -11 -18 -9 -1 2 -7 13 -13 24 -14 25 -83 28 -132
6 -27 -12 -34 -13 -45 -2 -9 11 -9 14 1 18 6 3 12 9 12 15 0 7 -5 7 -13 -1 -8
-6 -16 -8 -19 -5 -3 3 -23 -2 -44 -11 -35 -14 -36 -16 -19 -29 16 -12 22 -12
42 1 24 16 47 9 39 -13 -3 -8 0 -11 8 -8 7 3 18 -2 25 -10 11 -13 3 -15 -72
-10 l-84 5 -7 -40 c-3 -23 -11 -41 -16 -41 -6 0 -9 -3 -9 -7 5 -30 -3 -43 -23
-40 -50 8 -49 63 3 122 30 34 36 70 10 70 -9 0 -14 16 -15 48 -2 49 -23 78
-38 54 -4 -7 -1 -13 8 -15 19 -4 13 -27 -7 -27 -21 0 -56 -36 -63 -66 -5 -24
-3 -26 21 -21 18 3 24 1 19 -7 -9 -15 -39 -14 -54 2 -7 6 -17 12 -22 12 -13 0
-12 8 3 45 10 21 16 27 24 19 8 -8 13 -7 18 2 5 8 4 10 -3 5 -7 -4 -12 -1 -12
8 0 9 -12 18 -27 22 -59 13 -93 26 -88 34 3 4 -4 6 -15 3 -24 -6 -70 31 -70
57 0 11 -7 16 -22 14 -13 -1 -28 -3 -35 -3 -6 -1 -18 -7 -25 -15 -8 -7 -27
-21 -43 -30 -17 -9 -41 -25 -55 -37 -29 -22 -56 -18 -65 12 -4 11 -11 16 -17
13 -5 -3 -2 8 7 26 10 20 31 38 58 49 46 20 31 23 -49 11z m145 -136 c-18 -22
-3 -29 26 -10 32 21 53 11 30 -14 -17 -19 -72 -24 -96 -9 -12 7 -12 13 2 36 9
16 21 27 27 26 7 -2 13 3 13 10 1 6 3 4 6 -6 3 -10 -1 -25 -8 -33z m202 -22
c-7 -2 -18 1 -23 6 -8 8 -4 9 13 5 13 -4 18 -8 10 -11z m-131 -27 c0 -8 -4
-15 -10 -15 -5 0 -10 7 -10 15 0 8 5 15 10 15 6 0 10 -7 10 -15z m10 -26 c-7
-11 -10 -22 -8 -23 2 -2 12 -8 23 -14 18 -9 16 -11 -13 -10 -43 1 -53 25 -21
49 31 24 32 23 19 -2z m307 -1 c-3 -8 -6 -5 -6 6 -1 11 2 17 5 13 3 -3 4 -12
1 -19z m-526 -22 c1 -6 0 -15 -1 -21 -1 -5 -2 -21 -2 -34 0 -22 -1 -22 -10 -5
-6 10 -17 24 -25 31 -21 17 -8 52 17 46 11 -3 21 -10 21 -17z m827 -8 c-2 -6
-10 -14 -16 -16 -7 -2 -10 2 -6 12 7 18 28 22 22 4z m59 -17 c-2 -27 -37 -66
-37 -41 0 12 -38 9 -58 -4 -18 -11 -22 -5 -15 22 3 13 10 19 17 15 6 -4 25 -8
43 -8 29 -1 32 2 27 22 -5 17 -2 23 10 23 11 0 15 -8 13 -29z m-963 4 c-4 -8
-8 -15 -10 -15 -2 0 -4 7 -4 15 0 8 4 15 10 15 5 0 7 -7 4 -15z m577 -35 c5 0
9 -5 9 -11 0 -6 -7 -8 -16 -5 -9 4 -23 1 -31 -5 -7 -7 -16 -9 -20 -5 -3 3 -1
6 5 6 7 0 12 7 12 16 0 11 5 14 16 10 9 -3 20 -6 25 -6z m-97 -19 c8 -12 -27
-49 -41 -44 -7 3 -13 11 -13 19 0 8 6 11 17 7 12 -5 15 -2 10 10 -7 18 17 25
27 8z m-338 -46 c16 -12 16 -14 3 -15 -9 0 -22 7 -29 15 -16 19 0 19 26 0z
m669 -25 c4 0 3 5 0 10 -10 16 5 12 23 -7 13 -13 13 -15 2 -11 -8 3 -23 1 -32
-4 -15 -7 -18 -4 -17 24 0 30 1 31 9 11 5 -13 12 -23 15 -23z m-238 -8 c28
-33 47 -103 30 -114 -9 -6 -9 -8 1 -8 6 0 12 -4 12 -9 0 -6 -13 -5 -32 1 -18
6 -41 11 -50 11 -9 1 -21 10 -27 22 -10 21 -41 119 -41 129 0 4 19 3 43 0 28
-4 49 -15 64 -32z m203 8 c0 -4 -6 -10 -14 -13 -10 -4 -12 0 -9 14 5 18 23 18
23 -1z m296 5 c-5 -14 5 -20 27 -16 5 1 0 -9 -10 -23 -16 -22 -50 -26 -37 -5
7 12 -15 41 -26 34 -5 -3 -11 -1 -15 5 -3 5 3 10 14 10 12 0 21 -6 21 -12 0
-7 5 -5 11 5 12 21 23 23 15 2z m-683 -73 c6 -9 19 -11 39 -7 30 7 30 6 26
-24 -3 -18 -1 -34 4 -37 4 -3 8 -10 8 -15 0 -6 -12 -2 -27 9 -19 13 -35 17
-48 12 -11 -4 -26 -5 -33 -3 -8 4 -10 0 -6 -11 4 -11 1 -16 -10 -16 -10 0 -13
6 -10 15 4 8 1 15 -5 15 -6 0 -11 -7 -11 -15 0 -13 -11 -16 -52 -14 -29 2 -64
9 -78 16 -13 7 -34 10 -46 7 -12 -3 -25 0 -29 6 -6 9 -9 9 -15 0 -5 -9 -18 -8
-51 4 -24 8 -39 15 -34 16 6 0 3 5 -5 10 -12 7 -12 12 -2 22 10 10 14 10 21 0
5 -8 17 -11 33 -7 14 4 29 2 32 -4 5 -7 15 -7 32 1 21 10 30 7 71 -21 46 -33
89 -49 77 -30 -3 6 3 13 15 16 12 3 21 12 21 20 0 11 -7 9 -31 -7 -16 -12 -33
-19 -36 -16 -4 3 -4 7 -2 9 2 1 18 12 34 23 17 12 41 24 53 28 18 6 21 12 16
29 l-7 22 24 -20 c13 -11 28 -26 32 -33z m467 13 c-6 -8 -19 -11 -27 -8 -14 5
-14 8 2 19 22 16 40 8 25 -11z m230 -37 c-22 -21 -20 -39 2 -21 15 12 58 -1
58 -17 0 -24 -58 -70 -88 -70 -17 0 -32 -6 -35 -12 -2 -7 -8 -10 -12 -6 -22
21 63 165 88 151 5 -3 -1 -14 -13 -25z m170 -8 c12 -8 11 -10 -7 -10 -13 0
-23 5 -23 10 0 13 11 13 30 0z m-1203 -46 c-3 -3 -12 -4 -19 -1 -8 3 -5 6 6 6
11 1 17 -2 13 -5z m450 -46 c4 -7 9 -21 10 -30 2 -14 -3 -17 -20 -14 -12 3
-25 5 -29 5 -5 1 -8 5 -8 10 0 5 10 7 23 4 18 -5 20 -3 10 8 -7 7 -13 17 -13
21 0 12 18 9 27 -4z m-21 -60 c4 -7 3 -8 -4 -4 -7 4 -12 2 -12 -4 0 -6 -4 -8
-10 -5 -5 3 -10 10 -10 16 0 13 27 11 36 -3z m-106 -28 c14 -11 21 -20 15 -20
-5 0 -21 9 -35 20 -14 11 -20 20 -15 20 6 0 21 -9 35 -20z"/>
<path d="M5710 1875 c0 -8 -4 -15 -10 -15 -5 0 -10 -5 -10 -10 0 -6 13 -4 30
5 34 18 39 35 10 35 -11 0 -20 -7 -20 -15z"/>
<path d="M5430 1860 c-8 -5 -12 -11 -9 -14 2 -3 11 -1 19 4 8 5 12 11 9 14 -2
3 -11 1 -19 -4z"/>
<path d="M5558 2333 c6 -2 18 -2 25 0 6 3 1 5 -13 5 -14 0 -19 -2 -12 -5z"/>
<path d="M9140 2332 c0 -5 7 -9 15 -9 8 0 12 4 9 9 -3 4 -9 8 -15 8 -5 0 -9
-4 -9 -8z"/>
<path d="M5224 2309 c-3 -6 -19 -8 -35 -5 -24 5 -29 2 -29 -15 0 -29 27 -34
71 -13 37 18 38 20 20 31 -14 9 -22 9 -27 2z"/>
<path d="M4710 2299 c0 -5 5 -7 10 -4 6 3 10 8 10 11 0 2 -4 4 -10 4 -5 0 -10
-5 -10 -11z"/>
<path d="M3410 2290 c-12 -8 -11 -10 8 -10 12 0 22 5 22 10 0 13 -11 13 -30 0z"/>
<path d="M4880 2281 c0 -11 40 -41 54 -41 5 0 -1 11 -14 25 -24 26 -40 32 -40
16z"/>
<path d="M4970 2231 c0 -10 19 -25 25 -20 1 2 -3 10 -11 17 -8 7 -14 8 -14 3z"/>
<path d="M5043 2221 c-26 -21 -30 -56 -9 -64 20 -8 46 24 46 56 0 32 -7 33
-37 8z"/>
<path d="M6007 2208 c3 -14 20 -40 38 -58 28 -27 36 -30 54 -21 20 11 30 32
14 30 -42 -7 -59 4 -97 56 -13 19 -14 18 -9 -7z"/>
<path d="M6106 2207 c3 -10 9 -15 12 -12 3 3 0 11 -7 18 -10 9 -11 8 -5 -6z"/>
<path d="M9790 2146 c0 -2 8 -10 18 -17 15 -13 16 -12 3 4 -13 16 -21 21 -21
13z"/>
<path d="M9840 2105 c7 -9 15 -13 17 -11 7 7 -7 26 -19 26 -6 0 -6 -6 2 -15z"/>
<path d="M5040 2086 c-14 -14 -65 -42 -115 -64 -87 -39 -93 -40 -180 -37 -62
3 -107 0 -145 -11 -45 -13 -73 -14 -145 -6 -48 6 -94 8 -100 5 -19 -7 -135 26
-177 50 -21 11 -40 18 -43 15 -6 -6 17 -121 29 -150 9 -20 -11 -25 -154 -33
-94 -6 -308 7 -352 21 -33 10 -20 33 23 40 29 5 39 11 35 21 -4 8 -6 19 -6 24
0 20 -31 8 -40 -16 -11 -30 -21 -31 -44 -6 -19 21 -36 22 -60 2 -23 -20 -20
-27 22 -46 20 -10 44 -25 53 -34 14 -15 12 -17 -35 -33 -61 -20 -90 -22 -80
-6 5 8 -3 9 -27 5 -19 -3 -28 -3 -21 0 23 9 12 20 -18 18 -17 -1 -33 2 -36 7
-3 4 -9 6 -14 3 -5 -3 -12 6 -16 20 -5 20 -11 24 -29 19 -16 -4 -26 0 -33 13
-10 17 -11 16 -21 -7 -8 -21 -16 -14 -13 11 1 4 -10 7 -23 7 -14 0 -22 -4 -19
-9 3 -5 1 -9 -4 -9 -6 0 -8 -9 -5 -21 3 -12 11 -18 19 -15 19 7 17 -1 -5 -23
-11 -11 -22 -17 -25 -14 -3 4 -6 -6 -6 -20 0 -15 -4 -27 -10 -27 -5 0 -10 5
-10 10 0 6 -6 5 -14 -2 -8 -7 -12 -16 -10 -20 2 -4 -1 -10 -7 -14 -8 -4 -9 -3
-5 4 5 8 -6 12 -36 12 -31 0 -39 3 -28 10 16 11 15 11 -17 15 -16 2 -20 -2
-15 -14 5 -14 4 -14 -13 -1 -10 8 -32 15 -49 15 -22 0 -31 5 -30 15 1 9 -5 21
-12 28 -8 8 -14 9 -14 2 0 -12 -60 19 -85 43 -37 38 -115 -25 -115 -91 0 -40
16 -61 72 -97 72 -45 450 -67 547 -31 63 23 74 21 68 -11 -3 -16 -1 -59 5 -97
9 -51 8 -73 0 -87 -11 -17 -10 -29 8 -74 16 -43 30 -92 30 -108 0 -13 -5 -14
-32 -6 -45 12 -61 11 -83 -5 -16 -12 -17 -16 -6 -30 11 -14 11 -16 -3 -16 -9
0 -16 4 -16 9 0 21 -72 33 -158 26 -137 -11 -158 -44 -59 -92 31 -15 47 -29
47 -41 0 -13 11 -21 38 -28 30 -7 37 -13 37 -34 0 -18 -6 -26 -21 -28 -12 -2
-30 -12 -40 -23 -17 -18 -16 -20 5 -42 12 -14 20 -34 19 -47 -3 -26 21 -36 90
-39 19 0 49 -8 68 -17 23 -11 47 -14 76 -10 131 18 183 18 197 2 12 -14 11
-16 -8 -16 -34 0 -16 -17 25 -23 20 -3 43 -12 51 -19 10 -8 38 -12 77 -10 44
3 76 -2 114 -17 29 -12 66 -21 83 -21 22 0 32 -6 36 -19 7 -27 88 -34 258 -21
144 10 241 32 263 58 8 11 10 36 5 86 -4 39 -6 89 -5 110 1 22 -3 45 -9 52
-20 24 -3 39 60 53 49 11 64 11 76 1 8 -7 15 -18 15 -24 0 -31 22 -86 32 -80
10 7 140 30 213 38 40 5 97 28 111 45 6 8 16 11 22 7 7 -4 12 -1 12 8 0 9 -9
16 -20 16 -11 0 -20 -4 -20 -10 0 -13 -47 -13 -55 0 -3 6 -18 7 -32 4 -18 -5
-24 -3 -19 5 4 6 18 11 31 11 13 0 26 4 29 8 6 11 -51 102 -65 102 -6 0 -9 7
-5 15 3 8 -3 23 -13 32 -10 10 -21 27 -25 38 -6 16 -9 17 -17 5 -8 -13 -12
-11 -27 8 -10 13 -28 29 -41 35 -13 7 -22 17 -20 22 4 10 16 12 82 14 51 1 47
16 -5 16 -45 0 -62 18 -26 29 13 4 18 10 11 12 -7 3 -10 11 -7 17 2 7 1 24 -4
39 -6 22 -10 24 -22 15 -9 -7 -24 -23 -33 -37 -13 -19 -17 -21 -17 -7 0 11 -8
17 -24 17 -36 0 -40 -15 -17 -63 11 -23 22 -53 25 -67 2 -14 9 -24 15 -22 18
4 62 -51 48 -60 -19 -12 -27 -9 -27 8 0 11 -6 13 -19 9 -15 -5 -20 1 -28 32
-7 32 -16 42 -56 61 -59 29 -75 25 -42 -10 15 -16 31 -25 40 -22 9 4 15 0 15
-9 0 -8 -6 -17 -12 -20 -10 -3 -10 -7 -1 -19 32 -39 -30 -20 -68 21 -10 11
-25 18 -32 15 -8 -3 -25 12 -41 36 -16 25 -33 40 -41 36 -15 -6 -29 20 -15 29
5 3 18 1 29 -5 25 -13 31 -13 31 0 0 6 -7 10 -15 10 -19 0 -41 36 -49 81 -5
29 -3 38 10 43 18 7 34 -8 34 -31 0 -7 8 -17 18 -22 12 -7 17 -20 17 -45 -2
-47 15 -51 58 -12 34 30 35 34 27 71 -9 38 -8 42 28 73 36 32 36 33 10 28 -21
-5 -26 -3 -22 8 3 8 12 17 20 20 9 3 12 10 9 16 -6 9 65 16 125 11 33 -2 163
-49 220 -78 l45 -23 -50 44 c-27 25 -63 48 -80 52 -57 12 -85 56 -44 69 l21 7
-21 22 c-21 22 -29 52 -12 41 5 -3 12 -1 16 5 10 16 44 11 54 -8 7 -13 6 -23
-2 -31 -7 -8 4 -6 28 4 22 9 45 19 51 22 8 3 9 15 2 43 -12 45 -3 93 15 87 6
-2 14 -14 17 -27 12 -49 25 -29 24 36 -2 73 -7 83 -29 64 -20 -17 -20 3 0 59
16 47 10 51 -25 17z m7 -118 c-3 -8 -6 -5 -6 6 -1 11 2 17 5 13 3 -3 4 -12 1
-19z m-75 -127 c-3 -8 -10 -1 -18 19 -17 40 -18 57 -1 74 10 11 13 5 18 -33 3
-25 4 -52 1 -60z m-1682 49 c0 -5 -7 -10 -16 -10 -8 0 -12 5 -9 10 3 6 10 10
16 10 5 0 9 -4 9 -10z m91 -23 c-1 -12 -15 -9 -19 4 -3 6 1 10 8 8 6 -3 11 -8
11 -12z m-101 -42 c0 -8 -4 -15 -10 -15 -5 0 -10 7 -10 15 0 8 5 15 10 15 6 0
10 -7 10 -15z m393 -2 c8 -7 -11 -33 -23 -33 -5 0 -6 9 -3 20 5 20 15 25 26
13z m488 -73 c24 0 29 -4 29 -25 0 -18 11 -33 41 -53 22 -15 55 -39 73 -54 25
-21 35 -24 50 -16 22 13 36 -4 36 -44 0 -16 4 -28 9 -28 15 0 22 32 11 45 -8
10 -8 15 0 20 15 9 17 6 28 -42 9 -37 7 -42 -10 -46 -28 -8 -42 0 -62 33 -9
17 -23 30 -29 30 -7 0 -23 3 -36 7 -16 4 -22 3 -17 -5 3 -6 -2 -17 -12 -24
-24 -18 -20 -49 13 -92 l28 -37 20 30 c19 31 37 41 37 21 0 -6 -7 -13 -15 -16
-17 -7 -21 -34 -5 -34 6 0 10 -5 10 -11 0 -5 -8 -9 -17 -7 -10 1 -24 -1 -30
-5 -9 -6 -18 4 -28 30 -23 56 -111 111 -167 104 -21 -3 -24 15 -5 23 6 3 0 3
-14 0 -15 -3 -29 -1 -33 4 -6 11 29 28 77 37 29 6 37 3 50 -15 16 -23 37 -20
37 5 0 25 -34 34 -115 28 -73 -4 -80 -3 -98 19 l-18 23 3 -32 c4 -30 2 -32
-34 -38 -43 -8 -54 -5 -52 12 2 15 -37 23 -108 21 -57 -2 -88 11 -88 38 0 8
-6 11 -15 8 -8 -4 -27 -3 -41 0 -24 6 -26 10 -19 44 8 45 30 68 71 75 26 5 33
2 42 -18 8 -18 8 -26 -4 -35 -8 -7 -14 -18 -14 -24 0 -8 2 -8 8 0 4 6 23 22
42 34 19 12 27 20 18 16 -11 -3 -18 0 -18 8 0 20 11 26 29 17 10 -6 35 -5 63
1 54 13 83 -1 73 -33 -5 -14 -1 -19 14 -19 12 0 21 5 21 11 0 21 70 2 91 -25
14 -17 30 -26 47 -25 15 1 20 3 11 6 -12 3 -16 17 -16 56 0 29 2 40 4 25 4
-23 9 -28 34 -28z m-531 -20 c0 -5 -2 -10 -4 -10 -3 0 -8 5 -11 10 -3 6 -1 10
4 10 6 0 11 -4 11 -10z m933 -95 c-9 -7 -23 -10 -30 -8 -10 4 -9 8 4 18 9 7
23 10 30 8 10 -4 9 -8 -4 -18z m-83 -21 c-1 -4 4 -11 12 -15 10 -7 9 -9 -5 -9
-10 0 -22 11 -27 26 -14 35 -13 38 5 20 9 -8 15 -18 15 -22z m90 -24 c0 -5 -4
-10 -10 -10 -5 0 -10 5 -10 10 0 6 5 10 10 10 6 0 10 -4 10 -10z m-830 -40 c0
-5 -2 -10 -4 -10 -3 0 -8 5 -11 10 -3 6 -1 10 4 10 6 0 11 -4 11 -10z m52 -95
c3 -35 0 -40 -19 -43 -13 -2 -23 1 -23 6 0 6 -3 17 -6 26 -4 11 -1 16 11 16
13 0 15 6 10 33 -6 29 -5 30 8 17 9 -8 17 -33 19 -55z m298 61 c0 -15 -14 -35
-21 -30 -15 9 -10 34 6 34 8 0 15 -2 15 -4z m-63 -78 c-3 -7 -5 -2 -5 12 0 14
2 19 5 13 2 -7 2 -19 0 -25z m433 23 c0 -6 -4 -13 -10 -16 -5 -3 -10 1 -10 9
0 9 5 16 10 16 6 0 10 -4 10 -9z m-10 -47 c0 -8 -4 -12 -10 -9 -5 3 -10 10
-10 16 0 5 5 9 10 9 6 0 10 -7 10 -16z m-45 -5 c10 -15 -1 -23 -20 -15 -9 3
-13 10 -10 16 8 13 22 13 30 -1z m-155 -110 c-12 -21 -37 -35 -46 -26 -8 7 28
45 44 46 10 1 10 -4 2 -20z m-421 -25 c18 -41 13 -45 -31 -23 -24 12 -45 23
-47 25 -9 8 10 19 37 21 23 2 32 -4 41 -23z m501 -13 c0 -15 -16 -22 -34 -15
-25 9 -19 24 9 24 14 0 25 -4 25 -9z m530 5 c0 -11 -19 -15 -25 -6 -3 5 1 10
9 10 9 0 16 -2 16 -4z m40 -26 c0 -5 -4 -10 -10 -10 -5 0 -10 5 -10 10 0 6 5
10 10 10 6 0 10 -4 10 -10z m-22 -28 c2 -7 -2 -10 -12 -6 -9 3 -16 11 -16 16
0 13 23 5 28 -10z m-1368 4 c0 -3 -4 -8 -10 -11 -5 -3 -10 -1 -10 4 0 6 5 11
10 11 6 0 10 -2 10 -4z m913 -3 c-7 -2 -19 -2 -25 0 -7 3 -2 5 12 5 14 0 19
-2 13 -5z m327 -14 c0 -6 -4 -7 -10 -4 -5 3 -10 11 -10 16 0 6 5 7 10 4 6 -3
10 -11 10 -16z m-865 -10 c11 -17 -1 -21 -41 -13 l-39 8 30 7 c17 4 33 7 37 8
4 0 10 -4 13 -10z m-227 -30 c3 -22 -5 -32 -43 -58 -26 -17 -51 -29 -56 -26
-24 15 3 78 42 100 35 19 54 14 57 -16z m953 21 c10 -6 19 -15 19 -20 0 -14
-34 -12 -48 2 -26 26 -7 37 29 18z m-106 -62 c27 -12 34 -38 10 -38 -18 0 -65
21 -65 30 0 21 20 24 55 8z m-304 -18 c30 -17 24 -40 -11 -40 -17 0 -42 -8
-56 -17 -21 -13 -32 -14 -57 -6 -18 6 -50 14 -72 18 -37 6 -39 8 -20 21 13 10
32 13 61 8 32 -5 42 -2 47 10 7 19 77 22 108 6z m-526 -50 c3 -5 1 -10 -4 -10
-6 0 -11 5 -11 10 0 6 2 10 4 10 3 0 8 -4 11 -10z m-75 -28 c0 -14 -78 -53
-84 -43 -12 19 6 40 37 44 18 2 35 5 40 5 4 1 7 -2 7 -6z m790 -17 c0 -8 -4
-15 -10 -15 -5 0 -10 7 -10 15 0 8 5 15 10 15 6 0 10 -7 10 -15z m-270 -5 c12
-8 11 -10 -7 -10 -12 0 -25 5 -28 10 -8 13 15 13 35 0z m50 -49 c0 -24 -45
-54 -70 -46 -30 9 -24 30 13 49 42 21 57 20 57 -3z m-906 -7 c22 -9 20 -24 -3
-24 -21 0 -34 13 -24 24 8 7 8 7 27 0z"/>
<path d="M4140 1720 c0 -5 5 -10 11 -10 5 0 7 5 4 10 -3 6 -8 10 -11 10 -2 0
-4 -4 -4 -10z"/>
<path d="M6448 2103 c7 -3 16 -2 19 1 4 3 -2 6 -13 5 -11 0 -14 -3 -6 -6z"/>
<path d="M4535 2090 c3 -5 8 -10 11 -10 2 0 4 5 4 10 0 6 -5 10 -11 10 -5 0
-7 -4 -4 -10z"/>
<path d="M6477 2093 c-8 -13 2 -43 14 -43 10 0 10 8 0 34 -5 12 -10 16 -14 9z"/>
<path d="M9840 2076 c0 -2 7 -7 16 -10 8 -3 12 -2 9 4 -6 10 -25 14 -25 6z"/>
<path d="M4537 2053 c-14 -13 -6 -23 19 -23 23 0 24 2 10 15 -16 17 -20 18
-29 8z"/>
<path d="M9840 2039 c0 -5 5 -7 10 -4 6 3 10 8 10 11 0 2 -4 4 -10 4 -5 0 -10
-5 -10 -11z"/>
<path d="M9952 1994 c10 -10 20 -16 22 -13 3 3 -5 11 -17 18 -21 13 -21 12 -5
-5z"/>
<path d="M9868 1983 c7 -3 16 -2 19 1 4 3 -2 6 -13 5 -11 0 -14 -3 -6 -6z"/>
<path d="M9900 1978 c0 -4 4 -8 9 -8 6 0 12 4 15 8 3 5 -1 9 -9 9 -8 0 -15 -4
-15 -9z"/>
<path d="M9933 1953 c9 -2 25 -2 35 0 9 3 1 5 -18 5 -19 0 -27 -2 -17 -5z"/>
<path d="M3351 1921 c-8 -6 -9 -11 -3 -15 6 -3 14 -1 17 5 9 14 2 20 -14 10z"/>
<path d="M3955 1912 c-41 -8 -39 -22 3 -22 23 0 42 4 42 9 0 12 -21 18 -45 13z"/>
<path d="M1925 1859 c-4 -6 -5 -12 -2 -15 2 -3 7 2 10 11 7 17 1 20 -8 4z"/>
<path d="M3540 1840 c0 -5 7 -7 15 -4 8 4 15 8 15 10 0 2 -7 4 -15 4 -8 0 -15
-4 -15 -10z"/>
<path d="M9935 1810 c-3 -5 4 -15 15 -23 11 -7 17 -18 13 -23 -4 -5 -2 -4 6 3
11 9 9 15 -8 32 -11 11 -23 16 -26 11z"/>
<path d="M1853 1713 c-15 -31 -14 -34 13 -27 13 4 20 13 19 27 -2 31 -18 31
-32 0z"/>
<path d="M9989 1723 c-1 -5 -1 -11 0 -15 2 -12 -17 -10 -24 2 -3 6 -13 10 -21
10 -12 0 -12 -5 3 -27 9 -16 19 -30 21 -33 1 -2 8 2 13 10 8 11 9 10 4 -7 -4
-14 -2 -23 5 -23 7 0 10 17 9 45 -3 40 -7 58 -10 38z"/>
<path d="M9873 1678 c3 -9 1 -19 -6 -22 -9 -3 -9 -5 0 -5 18 -1 23 13 11 29
-8 12 -9 12 -5 -2z"/>
<path d="M9834 1622 c3 -5 0 -13 -6 -15 -8 -3 -6 -6 5 -6 19 -1 23 14 5 25 -6
4 -8 3 -4 -4z"/>
<path d="M9982 1625 c4 -4 3 -14 -4 -22 -8 -11 -7 -12 6 -7 19 7 21 20 4 30
-7 4 -10 4 -6 -1z"/>
<path d="M9870 1600 c13 -9 13 -10 0 -10 -13 0 -13 -2 -1 -9 9 -6 19 -5 26 2
14 13 1 27 -25 27 -13 0 -13 -1 0 -10z"/>
<path d="M9928 1583 c7 -3 16 -2 19 1 4 3 -2 6 -13 5 -11 0 -14 -3 -6 -6z"/>
<path d="M9950 1520 c0 -11 5 -22 12 -26 8 -5 9 -2 5 9 -4 11 -1 17 9 17 9 0
12 -5 8 -12 -4 -7 -3 -8 4 -4 21 12 13 31 -13 32 -18 1 -25 -3 -25 -16z"/>
<path d="M1763 1473 c-3 -10 -8 -22 -10 -28 -3 -5 3 -1 11 9 16 20 21 36 11
36 -3 0 -8 -8 -12 -17z"/>
<path d="M4860 1481 c0 -5 5 -13 10 -16 6 -3 10 -2 10 4 0 5 -4 13 -10 16 -5
3 -10 2 -10 -4z"/>
<path d="M9985 1480 c3 -5 8 -10 11 -10 2 0 4 5 4 10 0 6 -5 10 -11 10 -5 0
-7 -4 -4 -10z"/>
<path d="M1715 1390 c-3 -5 -2 -10 4 -10 5 0 13 5 16 10 3 6 2 10 -4 10 -5 0
-13 -4 -16 -10z"/>
<path d="M4631 1326 c-9 -10 -9 -16 -1 -21 13 -8 42 14 34 26 -8 13 -20 11
-33 -5z"/>
<path d="M2172 1238 c2 -12 11 -24 21 -26 14 -3 18 1 15 20 -2 12 -11 24 -21
26 -14 3 -18 -1 -15 -20z"/>
<path d="M2743 1238 c-28 -36 -48 -126 -44 -195 3 -60 -12 -113 -38 -137 -17
-16 -23 -15 -98 22 -43 21 -104 59 -135 84 -31 26 -73 52 -92 59 -20 7 -36 20
-36 28 0 8 -7 22 -15 31 -15 16 -19 16 -60 1 -24 -8 -47 -12 -51 -8 -9 9 15
37 31 37 7 0 32 11 55 24 40 23 41 25 22 35 -29 16 -40 14 -65 -10 -16 -15
-30 -19 -54 -15 l-33 5 0 -50 c0 -27 -9 -83 -21 -126 -25 -91 -21 -152 13
-186 13 -12 28 -31 34 -42 13 -24 44 -32 54 -15 6 9 28 3 84 -24 58 -27 82
-34 95 -26 16 8 18 5 16 -31 -3 -47 12 -58 47 -35 23 15 26 14 54 -7 16 -12
43 -37 61 -55 17 -17 39 -32 48 -32 9 0 21 -13 26 -29 8 -22 21 -33 52 -43 33
-10 42 -19 49 -45 9 -33 63 -87 82 -80 6 2 35 10 65 18 53 13 54 13 75 -13 34
-42 97 -53 198 -34 45 8 97 17 113 20 17 3 82 10 145 15 104 9 122 14 195 50
44 22 95 44 114 50 49 16 141 14 260 -6 98 -16 109 -16 187 0 124 26 203 53
259 88 57 37 47 48 -22 26 -50 -16 -246 -29 -464 -32 -69 -1 -133 -7 -144 -12
-13 -8 -27 -7 -49 2 -17 7 -76 16 -131 20 -91 6 -198 28 -269 55 -15 5 -60 13
-99 16 -101 8 -109 10 -152 44 -24 19 -49 30 -69 30 -41 0 -125 49 -165 97
-17 21 -49 56 -70 78 -85 89 -106 191 -62 304 21 55 22 72 4 49z m-583 -117
c0 -6 -4 -13 -10 -16 -5 -3 -10 1 -10 9 0 9 5 16 10 16 6 0 10 -4 10 -9z"/>
<path d="M8185 1135 c-18 -8 -23 -14 -13 -14 9 -1 18 -7 20 -13 3 -8 10 -4 17
10 16 30 13 33 -24 17z"/>
<path d="M4648 873 c-16 -2 -28 -9 -28 -15 0 -6 10 -8 23 -4 12 3 28 6 35 6 6
0 12 5 12 10 0 6 -3 9 -7 9 -5 -1 -20 -4 -35 -6z"/>
<path d="M5105 775 c-27 -13 -60 -24 -73 -25 -12 0 -44 -11 -71 -23 -26 -13
-80 -32 -120 -42 -74 -20 -86 -29 -50 -40 45 -15 90 -7 117 18 43 40 103 77
126 77 36 0 93 20 118 40 31 26 14 24 -47 -5z"/>
<path d="M5930 640 c0 -11 5 -20 10 -20 6 0 10 9 10 20 0 11 -4 20 -10 20 -5
0 -10 -9 -10 -20z"/>
<path d="M7830 520 c-11 -22 -19 -44 -16 -49 3 -4 81 -11 173 -15 365 -15
1315 -95 1688 -142 110 -14 228 -29 263 -33 l62 -7 0 63 0 63 -37 0 c-85 1
-846 51 -1358 91 -416 32 -696 56 -732 64 -18 4 -26 -2 -43 -35z"/>
<path d="M9980 44 c0 -14 4 -23 10 -19 6 3 10 15 10 26 0 10 -4 19 -10 19 -5
0 -10 -12 -10 -26z"/>
</g>
</svg>
